solid OpenSCAD_Model
  facet normal 0.0726932 0.799625 0.596084
    outer loop
      vertex 58 56 20
      vertex 14 60 20
      vertex 45 46 35
    endloop
  endfacet
  facet normal -0.216893 0.714994 0.664636
    outer loop
      vertex -58.3902 55.9616 20
      vertex -45.7654 45.8478 35
      vertex -45.3902 45.9616 35
    endloop
  endfacet
  facet normal -0.216893 0.714994 0.664636
    outer loop
      vertex -45.7654 45.8478 35
      vertex -58.3902 55.9616 20
      vertex -58.7654 55.8478 20
    endloop
  endfacet
  facet normal 0 1 -0
    outer loop
      vertex 14 60 0
      vertex -14 60 20
      vertex 14 60 20
    endloop
  endfacet
  facet normal 0 1 0
    outer loop
      vertex -14 60 20
      vertex 14 60 0
      vertex -14 60 0
    endloop
  endfacet
  facet normal 0.0377884 -0.116064 0.992523
    outer loop
      vertex 58.7654 16.1522 35
      vertex 15.7654 2.15224 35
      vertex 33.7654 -51.8478 28
    endloop
  endfacet
  facet normal -0.471391 0.881924 0
    outer loop
      vertex -58.7654 55.8478 0
      vertex -59.1111 55.6629 20
      vertex -58.7654 55.8478 20
    endloop
  endfacet
  facet normal -0.471391 0.881924 0
    outer loop
      vertex -59.1111 55.6629 20
      vertex -58.7654 55.8478 0
      vertex -59.1111 55.6629 0
    endloop
  endfacet
  facet normal 0.0784731 0.796758 0.599182
    outer loop
      vertex 58 56 20
      vertex 45.3902 45.9616 35
      vertex 58.3902 55.9616 20
    endloop
  endfacet
  facet normal 0.0784731 0.796758 0.599182
    outer loop
      vertex 45.3902 45.9616 35
      vertex 58 56 20
      vertex 45 46 35
    endloop
  endfacet
  facet normal 0.0122644 -0.124523 0.992141
    outer loop
      vertex 15.3902 2.03843 35
      vertex 15 2 35
      vertex 33 -52 28
    endloop
  endfacet
  facet normal 0.0959569 -0.974276 0.203908
    outer loop
      vertex 50 -52 20
      vertex 33.3902 -51.9616 28
      vertex 33 -52 28
    endloop
  endfacet
  facet normal 0.0959569 -0.974276 0.203908
    outer loop
      vertex 33.3902 -51.9616 28
      vertex 50 -52 20
      vertex 50.3902 -51.9616 20
    endloop
  endfacet
  facet normal 0 0.731055 0.682318
    outer loop
      vertex 14 60 20
      vertex -45 46 35
      vertex 45 46 35
    endloop
  endfacet
  facet normal 0 0.731055 0.682318
    outer loop
      vertex -45 46 35
      vertex 14 60 20
      vertex -14 60 20
    endloop
  endfacet
  facet normal -0.95694 -0.290287 0
    outer loop
      vertex -51.8478 -50.7654 0
      vertex -51.9616 -50.3902 20
      vertex -51.9616 -50.3902 0
    endloop
  endfacet
  facet normal -0.95694 -0.290287 0
    outer loop
      vertex -51.9616 -50.3902 20
      vertex -51.8478 -50.7654 0
      vertex -51.8478 -50.7654 20
    endloop
  endfacet
  facet normal -0.0980162 0.995185 0
    outer loop
      vertex -58 56 0
      vertex -58.3902 55.9616 20
      vertex -58 56 20
    endloop
  endfacet
  facet normal -0.0980162 0.995185 0
    outer loop
      vertex -58.3902 55.9616 20
      vertex -58 56 0
      vertex -58.3902 55.9616 0
    endloop
  endfacet
  facet normal -0.995185 0.0980162 0
    outer loop
      vertex -60 54 0
      vertex -59.9616 54.3902 20
      vertex -59.9616 54.3902 0
    endloop
  endfacet
  facet normal -0.995185 0.0980162 0
    outer loop
      vertex -59.9616 54.3902 20
      vertex -60 54 0
      vertex -60 54 20
    endloop
  endfacet
  facet normal 0.0122643 -0.124523 0.992141
    outer loop
      vertex 33.3902 -51.9616 28
      vertex 15.3902 2.03843 35
      vertex 33 -52 28
    endloop
  endfacet
  facet normal 0 -0.128554 0.991703
    outer loop
      vertex -15 2 35
      vertex 33 -52 28
      vertex 15 2 35
    endloop
  endfacet
  facet normal 0 -0.128554 0.991703
    outer loop
      vertex 33 -52 28
      vertex -15 2 35
      vertex -33 -52 28
    endloop
  endfacet
  facet normal 0 0 -1
    outer loop
      vertex 58 2 0
      vertex 60 4 0
      vertex 59.9616 3.60982 0
    endloop
  endfacet
  facet normal 0 0 -1
    outer loop
      vertex 60 4 0
      vertex 58 52 0
      vertex 60 54 0
    endloop
  endfacet
  facet normal 0 0 -1
    outer loop
      vertex 57.9616 52.3902 0
      vertex 60 54 0
      vertex 58 52 0
    endloop
  endfacet
  facet normal 0 0 -1
    outer loop
      vertex 57.8478 52.7654 0
      vertex 60 54 0
      vertex 57.9616 52.3902 0
    endloop
  endfacet
  facet normal 0 0 -1
    outer loop
      vertex 57.6629 53.1111 0
      vertex 60 54 0
      vertex 57.8478 52.7654 0
    endloop
  endfacet
  facet normal -0 0 -1
    outer loop
      vertex 60 54 0
      vertex 57.6629 53.1111 0
      vertex 59.9616 54.3902 0
    endloop
  endfacet
  facet normal 0 0 -1
    outer loop
      vertex 57.4142 53.4142 0
      vertex 59.9616 54.3902 0
      vertex 57.6629 53.1111 0
    endloop
  endfacet
  facet normal -0 0 -1
    outer loop
      vertex 59.9616 54.3902 0
      vertex 57.4142 53.4142 0
      vertex 59.8478 54.7654 0
    endloop
  endfacet
  facet normal -0 0 -1
    outer loop
      vertex 60 4 0
      vertex 58 2 0
      vertex 58 52 0
    endloop
  endfacet
  facet normal 0 0 -1
    outer loop
      vertex 59.9616 3.60982 0
      vertex 57.9616 1.60982 0
      vertex 58 2 0
    endloop
  endfacet
  facet normal 0 0 -1
    outer loop
      vertex 51.9616 -50.3902 0
      vertex 57.9616 1.60982 0
      vertex 59.9616 3.60982 0
    endloop
  endfacet
  facet normal 0 0 -1
    outer loop
      vertex 49.4142 -49.4142 0
      vertex 51.9616 -50.3902 0
      vertex 51.8478 -50.7654 0
    endloop
  endfacet
  facet normal 0 0 -1
    outer loop
      vertex 49.4142 -49.4142 0
      vertex 51.8478 -50.7654 0
      vertex 51.6629 -51.1111 0
    endloop
  endfacet
  facet normal 0 0 -1
    outer loop
      vertex 49.4142 -49.4142 0
      vertex 51.6629 -51.1111 0
      vertex 51.4142 -51.4142 0
    endloop
  endfacet
  facet normal 0 0 -1
    outer loop
      vertex 49.4142 -49.4142 0
      vertex 51.4142 -51.4142 0
      vertex 51.1111 -51.6629 0
    endloop
  endfacet
  facet normal 0 0 -1
    outer loop
      vertex 49.4142 -49.4142 0
      vertex 51.1111 -51.6629 0
      vertex 50.7654 -51.8478 0
    endloop
  endfacet
  facet normal 0 0 -1
    outer loop
      vertex 49.4142 -49.4142 0
      vertex 50.7654 -51.8478 0
      vertex 50.3902 -51.9616 0
    endloop
  endfacet
  facet normal 0 0 -1
    outer loop
      vertex 49.1111 -49.6629 0
      vertex 50.3902 -51.9616 0
      vertex 50 -52 0
    endloop
  endfacet
  facet normal 0 0 -1
    outer loop
      vertex 51.9616 -50.3902 0
      vertex 49.9616 -48.3902 0
      vertex 57.9616 1.60982 0
    endloop
  endfacet
  facet normal 0 0 -1
    outer loop
      vertex 51.9616 -50.3902 0
      vertex 49.8478 -48.7654 0
      vertex 49.9616 -48.3902 0
    endloop
  endfacet
  facet normal 0 0 -1
    outer loop
      vertex 51.9616 -50.3902 0
      vertex 49.6629 -49.1111 0
      vertex 49.8478 -48.7654 0
    endloop
  endfacet
  facet normal 0 0 -1
    outer loop
      vertex 51.9616 -50.3902 0
      vertex 49.4142 -49.4142 0
      vertex 49.6629 -49.1111 0
    endloop
  endfacet
  facet normal 0 0 -1
    outer loop
      vertex 50.3902 -51.9616 0
      vertex 49.1111 -49.6629 0
      vertex 49.4142 -49.4142 0
    endloop
  endfacet
  facet normal 0 0 -1
    outer loop
      vertex 50 -52 0
      vertex 48.7654 -49.8478 0
      vertex 49.1111 -49.6629 0
    endloop
  endfacet
  facet normal 0 0 -1
    outer loop
      vertex 50 -52 0
      vertex 48.3902 -49.9616 0
      vertex 48.7654 -49.8478 0
    endloop
  endfacet
  facet normal 0 0 -1
    outer loop
      vertex 50 -52 0
      vertex 48 -50 0
      vertex 48.3902 -49.9616 0
    endloop
  endfacet
  facet normal 0 0 -1
    outer loop
      vertex 50 -52 0
      vertex -48 -50 0
      vertex 48 -50 0
    endloop
  endfacet
  facet normal 0 0 -1
    outer loop
      vertex -50 -52 0
      vertex -48 -50 0
      vertex 50 -52 0
    endloop
  endfacet
  facet normal 0 0 -1
    outer loop
      vertex -50 -52 0
      vertex -48.3902 -49.9616 0
      vertex -48 -50 0
    endloop
  endfacet
  facet normal 0 0 -1
    outer loop
      vertex -50 -52 0
      vertex -48.7654 -49.8478 0
      vertex -48.3902 -49.9616 0
    endloop
  endfacet
  facet normal 0 0 -1
    outer loop
      vertex -50 -52 0
      vertex -49.1111 -49.6629 0
      vertex -48.7654 -49.8478 0
    endloop
  endfacet
  facet normal 0 0 -1
    outer loop
      vertex -50.3902 -51.9616 0
      vertex -49.1111 -49.6629 0
      vertex -50 -52 0
    endloop
  endfacet
  facet normal -0 0 -1
    outer loop
      vertex -49.1111 -49.6629 0
      vertex -50.3902 -51.9616 0
      vertex -49.4142 -49.4142 0
    endloop
  endfacet
  facet normal 0 0 -1
    outer loop
      vertex -50.7654 -51.8478 0
      vertex -49.4142 -49.4142 0
      vertex -50.3902 -51.9616 0
    endloop
  endfacet
  facet normal 0 0 -1
    outer loop
      vertex -51.1111 -51.6629 0
      vertex -49.4142 -49.4142 0
      vertex -50.7654 -51.8478 0
    endloop
  endfacet
  facet normal 0 0 -1
    outer loop
      vertex -51.4142 -51.4142 0
      vertex -49.4142 -49.4142 0
      vertex -51.1111 -51.6629 0
    endloop
  endfacet
  facet normal 0 0 -1
    outer loop
      vertex -51.6629 -51.1111 0
      vertex -49.4142 -49.4142 0
      vertex -51.4142 -51.4142 0
    endloop
  endfacet
  facet normal 0 0 -1
    outer loop
      vertex -51.8478 -50.7654 0
      vertex -49.4142 -49.4142 0
      vertex -51.6629 -51.1111 0
    endloop
  endfacet
  facet normal 0 0 -1
    outer loop
      vertex -51.9616 -50.3902 0
      vertex -49.4142 -49.4142 0
      vertex -51.8478 -50.7654 0
    endloop
  endfacet
  facet normal -0 0 -1
    outer loop
      vertex -49.4142 -49.4142 0
      vertex -51.9616 -50.3902 0
      vertex -49.6629 -49.1111 0
    endloop
  endfacet
  facet normal -0 0 -1
    outer loop
      vertex -49.6629 -49.1111 0
      vertex -51.9616 -50.3902 0
      vertex -49.8478 -48.7654 0
    endloop
  endfacet
  facet normal -0 0 -1
    outer loop
      vertex -49.8478 -48.7654 0
      vertex -51.9616 -50.3902 0
      vertex -49.9616 -48.3902 0
    endloop
  endfacet
  facet normal 0 0 -1
    outer loop
      vertex -51.9616 -50.3902 0
      vertex -57.9616 1.60982 0
      vertex -49.9616 -48.3902 0
    endloop
  endfacet
  facet normal 0 0 -1
    outer loop
      vertex -60 4 0
      vertex -58 52 0
      vertex -58 2 0
    endloop
  endfacet
  facet normal 0 0 -1
    outer loop
      vertex -58 52 0
      vertex -60 54 0
      vertex -58 56 0
    endloop
  endfacet
  facet normal 0 0 -1
    outer loop
      vertex -58 56 0
      vertex -60 54 0
      vertex -58.3902 55.9616 0
    endloop
  endfacet
  facet normal 0 0 -1
    outer loop
      vertex -58.3902 55.9616 0
      vertex -60 54 0
      vertex -58.7654 55.8478 0
    endloop
  endfacet
  facet normal 0 0 -1
    outer loop
      vertex -58.7654 55.8478 0
      vertex -60 54 0
      vertex -59.1111 55.6629 0
    endloop
  endfacet
  facet normal 0 0 -1
    outer loop
      vertex -59.1111 55.6629 0
      vertex -60 54 0
      vertex -59.4142 55.4142 0
    endloop
  endfacet
  facet normal 0 0 -1
    outer loop
      vertex -59.4142 55.4142 0
      vertex -60 54 0
      vertex -59.6629 55.1111 0
    endloop
  endfacet
  facet normal 0 0 -1
    outer loop
      vertex -59.9616 3.60982 0
      vertex -57.9616 1.60982 0
      vertex -51.9616 -50.3902 0
    endloop
  endfacet
  facet normal 0 0 -1
    outer loop
      vertex -59.9616 3.60982 0
      vertex -58 2 0
      vertex -57.9616 1.60982 0
    endloop
  endfacet
  facet normal 0 0 -1
    outer loop
      vertex -60 4 0
      vertex -58 2 0
      vertex -59.9616 3.60982 0
    endloop
  endfacet
  facet normal -0 0 -1
    outer loop
      vertex -58 52 0
      vertex -60 4 0
      vertex -60 54 0
    endloop
  endfacet
  facet normal 0 0 -1
    outer loop
      vertex -59.6629 55.1111 0
      vertex -60 54 0
      vertex -59.8478 54.7654 0
    endloop
  endfacet
  facet normal 0 0 -1
    outer loop
      vertex -59.8478 54.7654 0
      vertex -60 54 0
      vertex -59.9616 54.3902 0
    endloop
  endfacet
  facet normal -0 0 -1
    outer loop
      vertex 59.8478 54.7654 0
      vertex 57.4142 53.4142 0
      vertex 59.6629 55.1111 0
    endloop
  endfacet
  facet normal -0 0 -1
    outer loop
      vertex 59.6629 55.1111 0
      vertex 57.4142 53.4142 0
      vertex 59.4142 55.4142 0
    endloop
  endfacet
  facet normal -0 0 -1
    outer loop
      vertex 59.4142 55.4142 0
      vertex 57.4142 53.4142 0
      vertex 59.1111 55.6629 0
    endloop
  endfacet
  facet normal -0 0 -1
    outer loop
      vertex 59.1111 55.6629 0
      vertex 57.4142 53.4142 0
      vertex 58.7654 55.8478 0
    endloop
  endfacet
  facet normal -0 0 -1
    outer loop
      vertex 58.7654 55.8478 0
      vertex 57.4142 53.4142 0
      vertex 58.3902 55.9616 0
    endloop
  endfacet
  facet normal 0 0 -1
    outer loop
      vertex 57.1111 53.6629 0
      vertex 58.3902 55.9616 0
      vertex 57.4142 53.4142 0
    endloop
  endfacet
  facet normal -0 0 -1
    outer loop
      vertex 58.3902 55.9616 0
      vertex 57.1111 53.6629 0
      vertex 58 56 0
    endloop
  endfacet
  facet normal 0 0 -1
    outer loop
      vertex 56.7654 53.8478 0
      vertex 58 56 0
      vertex 57.1111 53.6629 0
    endloop
  endfacet
  facet normal 0 0 -1
    outer loop
      vertex 56.3902 53.9616 0
      vertex 58 56 0
      vertex 56.7654 53.8478 0
    endloop
  endfacet
  facet normal 0 0 -1
    outer loop
      vertex 56 54 0
      vertex 58 56 0
      vertex 56.3902 53.9616 0
    endloop
  endfacet
  facet normal 0 0 -1
    outer loop
      vertex 56 54 0
      vertex 14 60 0
      vertex 58 56 0
    endloop
  endfacet
  facet normal 0 0 -1
    outer loop
      vertex 12 58 0
      vertex 14 60 0
      vertex 56 54 0
    endloop
  endfacet
  facet normal 0 0 -1
    outer loop
      vertex -12 58 0
      vertex 14 60 0
      vertex 12 58 0
    endloop
  endfacet
  facet normal 0 0 -1
    outer loop
      vertex -12 58 0
      vertex -14 60 0
      vertex 14 60 0
    endloop
  endfacet
  facet normal 0 0 -1
    outer loop
      vertex -56 54 0
      vertex -14 60 0
      vertex -12 58 0
    endloop
  endfacet
  facet normal 0 0 -1
    outer loop
      vertex -58 56 0
      vertex -56 54 0
      vertex -56.3902 53.9616 0
    endloop
  endfacet
  facet normal 0 0 -1
    outer loop
      vertex -56 54 0
      vertex -58 56 0
      vertex -14 60 0
    endloop
  endfacet
  facet normal 0 0 -1
    outer loop
      vertex -56.7654 53.8478 0
      vertex -58 56 0
      vertex -56.3902 53.9616 0
    endloop
  endfacet
  facet normal 0 0 -1
    outer loop
      vertex -57.1111 53.6629 0
      vertex -58 56 0
      vertex -56.7654 53.8478 0
    endloop
  endfacet
  facet normal 0 0 -1
    outer loop
      vertex -57.4142 53.4142 0
      vertex -58 56 0
      vertex -57.1111 53.6629 0
    endloop
  endfacet
  facet normal 0 0 -1
    outer loop
      vertex -57.6629 53.1111 0
      vertex -58 56 0
      vertex -57.4142 53.4142 0
    endloop
  endfacet
  facet normal 0 0 -1
    outer loop
      vertex -57.8478 52.7654 0
      vertex -58 56 0
      vertex -57.6629 53.1111 0
    endloop
  endfacet
  facet normal 0 0 -1
    outer loop
      vertex -57.9616 52.3902 0
      vertex -58 56 0
      vertex -57.8478 52.7654 0
    endloop
  endfacet
  facet normal 0 0 -1
    outer loop
      vertex -58 56 0
      vertex -57.9616 52.3902 0
      vertex -58 52 0
    endloop
  endfacet
  facet normal 0 -1 0
    outer loop
      vertex -50 -52 0
      vertex -33 -52 28
      vertex -50 -52 20
    endloop
  endfacet
  facet normal 0 -1 -0
    outer loop
      vertex -33 -52 28
      vertex -50 -52 0
      vertex 33 -52 28
    endloop
  endfacet
  facet normal 0 -1 0
    outer loop
      vertex 50 -52 0
      vertex 33 -52 28
      vertex -50 -52 0
    endloop
  endfacet
  facet normal 0 -1 0
    outer loop
      vertex 33 -52 28
      vertex 50 -52 0
      vertex 50 -52 20
    endloop
  endfacet
  facet normal -0.376348 -0.230731 0.897288
    outer loop
      vertex -59.6629 16.8889 35
      vertex -59.6629 2.88886 31.4
      vertex -34.6629 -51.1111 28
    endloop
  endfacet
  facet normal -0.46449 -0.248271 0.850065
    outer loop
      vertex -59.6629 2.88886 31.4
      vertex -51.8478 -50.7654 20
      vertex -51.6629 -51.1111 20
    endloop
  endfacet
  facet normal -0.464487 -0.248271 0.850066
    outer loop
      vertex -51.8478 -50.7654 20
      vertex -59.6629 2.88886 31.4
      vertex -59.8478 3.23463 31.4
    endloop
  endfacet
  facet normal 0.773011 0.634393 0
    outer loop
      vertex 59.6629 55.1111 20
      vertex 59.4142 55.4142 0
      vertex 59.4142 55.4142 20
    endloop
  endfacet
  facet normal 0.773011 0.634393 0
    outer loop
      vertex 59.4142 55.4142 0
      vertex 59.6629 55.1111 20
      vertex 59.6629 55.1111 0
    endloop
  endfacet
  facet normal 0.0677678 -0.126787 0.989612
    outer loop
      vertex 58.7654 16.1522 35
      vertex 34.1111 -51.6629 28
      vertex 59.1111 16.3371 35
    endloop
  endfacet
  facet normal 0.0677678 -0.126787 0.989612
    outer loop
      vertex 34.1111 -51.6629 28
      vertex 58.7654 16.1522 35
      vertex 33.7654 -51.8478 28
    endloop
  endfacet
  facet normal 0.376348 -0.230731 0.897288
    outer loop
      vertex 59.6629 16.8889 35
      vertex 34.6629 -51.1111 28
      vertex 59.6629 2.88886 31.4
    endloop
  endfacet
  facet normal 0.412683 -0.246272 0.876951
    outer loop
      vertex 59.6629 2.88886 31.4
      vertex 34.6629 -51.1111 28
      vertex 51.6629 -51.1111 20
    endloop
  endfacet
  facet normal 0.881924 -0.471391 0
    outer loop
      vertex 51.6629 -51.1111 20
      vertex 51.8478 -50.7654 0
      vertex 51.8478 -50.7654 20
    endloop
  endfacet
  facet normal 0.881924 -0.471391 0
    outer loop
      vertex 51.8478 -50.7654 0
      vertex 51.6629 -51.1111 20
      vertex 51.6629 -51.1111 0
    endloop
  endfacet
  facet normal 0.0980162 -0.995185 0
    outer loop
      vertex 50 -52 0
      vertex 50.3902 -51.9616 20
      vertex 50 -52 20
    endloop
  endfacet
  facet normal 0.0980162 -0.995185 0
    outer loop
      vertex 50.3902 -51.9616 20
      vertex 50 -52 0
      vertex 50.3902 -51.9616 0
    endloop
  endfacet
  facet normal 0.290287 -0.95694 0
    outer loop
      vertex 50.3902 -51.9616 0
      vertex 50.7654 -51.8478 20
      vertex 50.3902 -51.9616 20
    endloop
  endfacet
  facet normal 0.290287 -0.95694 0
    outer loop
      vertex 50.7654 -51.8478 20
      vertex 50.3902 -51.9616 0
      vertex 50.7654 -51.8478 0
    endloop
  endfacet
  facet normal 0.0905357 0.995893 -0
    outer loop
      vertex 58 56 0
      vertex 14 60 20
      vertex 58 56 20
    endloop
  endfacet
  facet normal 0.0905357 0.995893 0
    outer loop
      vertex 14 60 20
      vertex 58 56 0
      vertex 14 60 0
    endloop
  endfacet
  facet normal 0.0980162 0.995185 -0
    outer loop
      vertex 58.3902 55.9616 0
      vertex 58 56 20
      vertex 58.3902 55.9616 20
    endloop
  endfacet
  facet normal 0.0980162 0.995185 0
    outer loop
      vertex 58 56 20
      vertex 58.3902 55.9616 0
      vertex 58 56 0
    endloop
  endfacet
  facet normal -0.290287 0.95694 0
    outer loop
      vertex -58.3902 55.9616 0
      vertex -58.7654 55.8478 20
      vertex -58.3902 55.9616 20
    endloop
  endfacet
  facet normal -0.290287 0.95694 0
    outer loop
      vertex -58.7654 55.8478 20
      vertex -58.3902 55.9616 0
      vertex -58.7654 55.8478 0
    endloop
  endfacet
  facet normal -0.785175 0.238182 0.571637
    outer loop
      vertex -59.9616 54.3902 20
      vertex -59.8478 18.7654 35
      vertex -59.8478 54.7654 20
    endloop
  endfacet
  facet normal -0.785177 0.238181 0.571636
    outer loop
      vertex -59.8478 18.7654 35
      vertex -59.9616 54.3902 20
      vertex -59.9616 18.3902 35
    endloop
  endfacet
  facet normal -0.0122644 -0.124523 0.992141
    outer loop
      vertex -15.3902 2.03843 35
      vertex -33 -52 28
      vertex -15 2 35
    endloop
  endfacet
  facet normal -0.218004 -0.178911 0.959409
    outer loop
      vertex -59.4142 16.5858 35
      vertex -34.6629 -51.1111 28
      vertex -34.4142 -51.4142 28
    endloop
  endfacet
  facet normal -0.218004 -0.178911 0.959409
    outer loop
      vertex -34.6629 -51.1111 28
      vertex -59.4142 16.5858 35
      vertex -59.6629 16.8889 35
    endloop
  endfacet
  facet normal -0.0122643 -0.124523 0.992141
    outer loop
      vertex -15.3902 2.03843 35
      vertex -33.3902 -51.9616 28
      vertex -33 -52 28
    endloop
  endfacet
  facet normal -0.634393 -0.773011 0
    outer loop
      vertex -51.4142 -51.4142 0
      vertex -51.1111 -51.6629 20
      vertex -51.4142 -51.4142 20
    endloop
  endfacet
  facet normal -0.634393 -0.773011 -0
    outer loop
      vertex -51.1111 -51.6629 20
      vertex -51.4142 -51.4142 0
      vertex -51.1111 -51.6629 0
    endloop
  endfacet
  facet normal -0.0959569 -0.974276 0.203908
    outer loop
      vertex -50 -52 20
      vertex -33.3902 -51.9616 28
      vertex -50.3902 -51.9616 20
    endloop
  endfacet
  facet normal -0.0959569 -0.974276 0.203908
    outer loop
      vertex -33.3902 -51.9616 28
      vertex -50 -52 20
      vertex -33 -52 28
    endloop
  endfacet
  facet normal 0.881924 0.471391 0
    outer loop
      vertex 59.8478 54.7654 20
      vertex 59.6629 55.1111 0
      vertex 59.6629 55.1111 20
    endloop
  endfacet
  facet normal 0.881924 0.471391 0
    outer loop
      vertex 59.6629 55.1111 0
      vertex 59.8478 54.7654 20
      vertex 59.8478 54.7654 0
    endloop
  endfacet
  facet normal 1 0 0
    outer loop
      vertex 60 4 0
      vertex 60 54 20
      vertex 60 18 35
    endloop
  endfacet
  facet normal 1 0 0
    outer loop
      vertex 60 4 0
      vertex 60 18 35
      vertex 60 4 31.4
    endloop
  endfacet
  facet normal 1 0 0
    outer loop
      vertex 60 54 20
      vertex 60 4 0
      vertex 60 54 0
    endloop
  endfacet
  facet normal 0.0354448 -0.116845 0.992517
    outer loop
      vertex 15.7654 2.15224 35
      vertex 33.3902 -51.9616 28
      vertex 33.7654 -51.8478 28
    endloop
  endfacet
  facet normal 0.0354445 -0.116845 0.992517
    outer loop
      vertex 33.3902 -51.9616 28
      vertex 15.7654 2.15224 35
      vertex 15.3902 2.03843 35
    endloop
  endfacet
  facet normal 0.33304 -0.623082 0.707709
    outer loop
      vertex 34.1111 -51.6629 28
      vertex 50.7654 -51.8478 20
      vertex 51.1111 -51.6629 20
    endloop
  endfacet
  facet normal 0.33304 -0.623082 0.707709
    outer loop
      vertex 50.7654 -51.8478 20
      vertex 34.1111 -51.6629 28
      vertex 33.7654 -51.8478 28
    endloop
  endfacet
  facet normal 0.118843 -0.144811 0.982296
    outer loop
      vertex 59.1111 16.3371 35
      vertex 34.4142 -51.4142 28
      vertex 59.4142 16.5858 35
    endloop
  endfacet
  facet normal 0.118843 -0.144811 0.982296
    outer loop
      vertex 34.4142 -51.4142 28
      vertex 59.1111 16.3371 35
      vertex 34.1111 -51.6629 28
    endloop
  endfacet
  facet normal 0.422335 -0.225741 0.877881
    outer loop
      vertex 59.6629 16.8889 35
      vertex 59.8478 3.23463 31.4
      vertex 59.8478 17.2346 35
    endloop
  endfacet
  facet normal 0.422335 -0.225741 0.877881
    outer loop
      vertex 59.8478 3.23463 31.4
      vertex 59.6629 16.8889 35
      vertex 59.6629 2.88886 31.4
    endloop
  endfacet
  facet normal 0.995185 -0.0980165 0
    outer loop
      vertex 59.9616 3.60982 31.4
      vertex 60 4 0
      vertex 60 4 31.4
    endloop
  endfacet
  facet normal 0.995185 -0.0980165 0
    outer loop
      vertex 60 4 0
      vertex 59.9616 3.60982 31.4
      vertex 59.9616 3.60982 0
    endloop
  endfacet
  facet normal 0.989203 -0.146549 0
    outer loop
      vertex 51.9616 -50.3902 20
      vertex 59.9616 3.60982 0
      vertex 59.9616 3.60982 31.4
    endloop
  endfacet
  facet normal 0.989203 -0.146549 0
    outer loop
      vertex 59.9616 3.60982 0
      vertex 51.9616 -50.3902 20
      vertex 51.9616 -50.3902 0
    endloop
  endfacet
  facet normal 0.95694 -0.290287 0
    outer loop
      vertex 51.8478 -50.7654 20
      vertex 51.9616 -50.3902 0
      vertex 51.9616 -50.3902 20
    endloop
  endfacet
  facet normal 0.95694 -0.290287 0
    outer loop
      vertex 51.9616 -50.3902 0
      vertex 51.8478 -50.7654 20
      vertex 51.8478 -50.7654 0
    endloop
  endfacet
  facet normal 0.773011 -0.634393 0
    outer loop
      vertex 51.4142 -51.4142 20
      vertex 51.6629 -51.1111 0
      vertex 51.6629 -51.1111 20
    endloop
  endfacet
  facet normal 0.773011 -0.634393 0
    outer loop
      vertex 51.6629 -51.1111 0
      vertex 51.4142 -51.4142 20
      vertex 51.4142 -51.4142 0
    endloop
  endfacet
  facet normal 0.216893 0.714994 0.664636
    outer loop
      vertex 58.3902 55.9616 20
      vertex 45.7654 45.8478 35
      vertex 58.7654 55.8478 20
    endloop
  endfacet
  facet normal 0.216893 0.714994 0.664636
    outer loop
      vertex 45.7654 45.8478 35
      vertex 58.3902 55.9616 20
      vertex 45.3902 45.9616 35
    endloop
  endfacet
  facet normal -0.609711 0.304855 0.731653
    outer loop
      vertex -59.8478 54.7654 20
      vertex -59.8478 18.7654 35
      vertex -46.8478 44.7654 35
    endloop
  endfacet
  facet normal -0.0784731 0.796758 0.599182
    outer loop
      vertex -58 56 20
      vertex -45.3902 45.9616 35
      vertex -45 46 35
    endloop
  endfacet
  facet normal -0.0784731 0.796758 0.599182
    outer loop
      vertex -45.3902 45.9616 35
      vertex -58 56 20
      vertex -58.3902 55.9616 20
    endloop
  endfacet
  facet normal -0.0905357 0.995893 0
    outer loop
      vertex -14 60 0
      vertex -58 56 20
      vertex -14 60 20
    endloop
  endfacet
  facet normal -0.0905357 0.995893 0
    outer loop
      vertex -58 56 20
      vertex -14 60 0
      vertex -58 56 0
    endloop
  endfacet
  facet normal -0.0726932 0.799625 0.596084
    outer loop
      vertex -14 60 20
      vertex -58 56 20
      vertex -45 46 35
    endloop
  endfacet
  facet normal -0.422335 -0.225741 0.877881
    outer loop
      vertex -59.8478 3.23463 31.4
      vertex -59.6629 16.8889 35
      vertex -59.8478 17.2346 35
    endloop
  endfacet
  facet normal -0.422335 -0.225741 0.877881
    outer loop
      vertex -59.6629 16.8889 35
      vertex -59.8478 3.23463 31.4
      vertex -59.6629 2.88886 31.4
    endloop
  endfacet
  facet normal -0.0354445 -0.116845 0.992517
    outer loop
      vertex -15.7654 2.15224 35
      vertex -33.3902 -51.9616 28
      vertex -15.3902 2.03843 35
    endloop
  endfacet
  facet normal -0.0354448 -0.116845 0.992517
    outer loop
      vertex -33.3902 -51.9616 28
      vertex -15.7654 2.15224 35
      vertex -33.7654 -51.8478 28
    endloop
  endfacet
  facet normal -0.33304 -0.623082 0.707709
    outer loop
      vertex -34.1111 -51.6629 28
      vertex -50.7654 -51.8478 20
      vertex -33.7654 -51.8478 28
    endloop
  endfacet
  facet normal -0.33304 -0.623082 0.707709
    outer loop
      vertex -50.7654 -51.8478 20
      vertex -34.1111 -51.6629 28
      vertex -51.1111 -51.6629 20
    endloop
  endfacet
  facet normal -0.989203 -0.146549 -0
    outer loop
      vertex -51.9616 -50.3902 20
      vertex -59.9616 3.60982 0
      vertex -51.9616 -50.3902 0
    endloop
  endfacet
  facet normal -0.989203 -0.146549 0
    outer loop
      vertex -59.9616 3.60982 0
      vertex -51.9616 -50.3902 20
      vertex -59.9616 3.60982 31.4
    endloop
  endfacet
  facet normal -0.782668 -0.23742 0.57538
    outer loop
      vertex -51.9616 -50.3902 20
      vertex -59.8478 3.23463 31.4
      vertex -59.9616 3.60982 31.4
    endloop
  endfacet
  facet normal -0.782664 -0.237421 0.575386
    outer loop
      vertex -59.8478 3.23463 31.4
      vertex -51.9616 -50.3902 20
      vertex -51.8478 -50.7654 20
    endloop
  endfacet
  facet normal -0.401962 -0.329881 0.854169
    outer loop
      vertex -34.6629 -51.1111 28
      vertex -51.4142 -51.4142 20
      vertex -34.4142 -51.4142 28
    endloop
  endfacet
  facet normal -0.401962 -0.329881 0.854169
    outer loop
      vertex -51.4142 -51.4142 20
      vertex -34.6629 -51.1111 28
      vertex -51.6629 -51.1111 20
    endloop
  endfacet
  facet normal -0.377954 -0.460539 0.803153
    outer loop
      vertex -34.4142 -51.4142 28
      vertex -51.1111 -51.6629 20
      vertex -34.1111 -51.6629 28
    endloop
  endfacet
  facet normal -0.377954 -0.460539 0.803153
    outer loop
      vertex -51.1111 -51.6629 20
      vertex -34.4142 -51.4142 28
      vertex -51.4142 -51.4142 20
    endloop
  endfacet
  facet normal -0.0980162 -0.995185 0
    outer loop
      vertex -50.3902 -51.9616 0
      vertex -50 -52 20
      vertex -50.3902 -51.9616 20
    endloop
  endfacet
  facet normal -0.0980162 -0.995185 -0
    outer loop
      vertex -50 -52 20
      vertex -50.3902 -51.9616 0
      vertex -50 -52 0
    endloop
  endfacet
  facet normal -0.247062 -0.814449 0.525008
    outer loop
      vertex -50.3902 -51.9616 20
      vertex -33.7654 -51.8478 28
      vertex -50.7654 -51.8478 20
    endloop
  endfacet
  facet normal -0.247062 -0.814449 0.525008
    outer loop
      vertex -33.7654 -51.8478 28
      vertex -50.3902 -51.9616 20
      vertex -33.3902 -51.9616 28
    endloop
  endfacet
  facet normal 0.995185 0.0980162 0
    outer loop
      vertex 60 54 20
      vertex 59.9616 54.3902 0
      vertex 59.9616 54.3902 20
    endloop
  endfacet
  facet normal 0.995185 0.0980162 0
    outer loop
      vertex 59.9616 54.3902 0
      vertex 60 54 20
      vertex 60 54 0
    endloop
  endfacet
  facet normal 0.247062 -0.814449 0.525008
    outer loop
      vertex 50.3902 -51.9616 20
      vertex 33.7654 -51.8478 28
      vertex 33.3902 -51.9616 28
    endloop
  endfacet
  facet normal 0.247062 -0.814449 0.525008
    outer loop
      vertex 33.7654 -51.8478 28
      vertex 50.3902 -51.9616 20
      vertex 50.7654 -51.8478 20
    endloop
  endfacet
  facet normal 0.377954 -0.460539 0.803153
    outer loop
      vertex 34.4142 -51.4142 28
      vertex 51.1111 -51.6629 20
      vertex 51.4142 -51.4142 20
    endloop
  endfacet
  facet normal 0.377954 -0.460539 0.803153
    outer loop
      vertex 51.1111 -51.6629 20
      vertex 34.4142 -51.4142 28
      vertex 34.1111 -51.6629 28
    endloop
  endfacet
  facet normal 0.401962 -0.329881 0.854169
    outer loop
      vertex 34.6629 -51.1111 28
      vertex 51.4142 -51.4142 20
      vertex 51.6629 -51.1111 20
    endloop
  endfacet
  facet normal 0.401962 -0.329881 0.854169
    outer loop
      vertex 51.4142 -51.4142 20
      vertex 34.6629 -51.1111 28
      vertex 34.4142 -51.4142 28
    endloop
  endfacet
  facet normal 0.782668 -0.23742 0.57538
    outer loop
      vertex 59.8478 3.23463 31.4
      vertex 51.9616 -50.3902 20
      vertex 59.9616 3.60982 31.4
    endloop
  endfacet
  facet normal 0.782664 -0.237421 0.575386
    outer loop
      vertex 51.9616 -50.3902 20
      vertex 59.8478 3.23463 31.4
      vertex 51.8478 -50.7654 20
    endloop
  endfacet
  facet normal 0.464487 -0.248271 0.850066
    outer loop
      vertex 59.6629 2.88886 31.4
      vertex 51.8478 -50.7654 20
      vertex 59.8478 3.23463 31.4
    endloop
  endfacet
  facet normal 0.46449 -0.248271 0.850065
    outer loop
      vertex 51.8478 -50.7654 20
      vertex 59.6629 2.88886 31.4
      vertex 51.6629 -51.1111 20
    endloop
  endfacet
  facet normal 0.290287 0.95694 -0
    outer loop
      vertex 58.7654 55.8478 0
      vertex 58.3902 55.9616 20
      vertex 58.7654 55.8478 20
    endloop
  endfacet
  facet normal 0.290287 0.95694 0
    outer loop
      vertex 58.3902 55.9616 20
      vertex 58.7654 55.8478 0
      vertex 58.3902 55.9616 0
    endloop
  endfacet
  facet normal -0.599606 0.320492 0.73332
    outer loop
      vertex -59.8478 54.7654 20
      vertex -46.6629 45.1111 35
      vertex -59.6629 55.1111 20
    endloop
  endfacet
  facet normal -0.599606 0.320492 0.73332
    outer loop
      vertex -46.6629 45.1111 35
      vertex -59.8478 54.7654 20
      vertex -46.8478 44.7654 35
    endloop
  endfacet
  facet normal -0.881924 0.471391 0
    outer loop
      vertex -59.8478 54.7654 0
      vertex -59.6629 55.1111 20
      vertex -59.6629 55.1111 0
    endloop
  endfacet
  facet normal -0.881924 0.471391 0
    outer loop
      vertex -59.6629 55.1111 20
      vertex -59.8478 54.7654 0
      vertex -59.8478 54.7654 20
    endloop
  endfacet
  facet normal -0.521832 0.428256 0.737759
    outer loop
      vertex -59.4142 55.4142 20
      vertex -46.6629 45.1111 35
      vertex -46.4142 45.4142 35
    endloop
  endfacet
  facet normal -0.521832 0.428256 0.737759
    outer loop
      vertex -46.6629 45.1111 35
      vertex -59.4142 55.4142 20
      vertex -59.6629 55.1111 20
    endloop
  endfacet
  facet normal -0.0377884 -0.116064 0.992523
    outer loop
      vertex -15.7654 2.15224 35
      vertex -58.7654 16.1522 35
      vertex -33.7654 -51.8478 28
    endloop
  endfacet
  facet normal -0.881924 -0.471391 0
    outer loop
      vertex -51.6629 -51.1111 0
      vertex -51.8478 -50.7654 20
      vertex -51.8478 -50.7654 0
    endloop
  endfacet
  facet normal -0.881924 -0.471391 0
    outer loop
      vertex -51.8478 -50.7654 20
      vertex -51.6629 -51.1111 0
      vertex -51.6629 -51.1111 20
    endloop
  endfacet
  facet normal -0.995185 -0.0980165 0
    outer loop
      vertex -59.9616 3.60982 0
      vertex -60 4 31.4
      vertex -60 4 0
    endloop
  endfacet
  facet normal -0.995185 -0.0980165 0
    outer loop
      vertex -60 4 31.4
      vertex -59.9616 3.60982 0
      vertex -59.9616 3.60982 31.4
    endloop
  endfacet
  facet normal -0.412683 -0.246272 0.876951
    outer loop
      vertex -34.6629 -51.1111 28
      vertex -59.6629 2.88886 31.4
      vertex -51.6629 -51.1111 20
    endloop
  endfacet
  facet normal -0.773011 -0.634393 0
    outer loop
      vertex -51.4142 -51.4142 0
      vertex -51.6629 -51.1111 20
      vertex -51.6629 -51.1111 0
    endloop
  endfacet
  facet normal -0.773011 -0.634393 0
    outer loop
      vertex -51.6629 -51.1111 20
      vertex -51.4142 -51.4142 0
      vertex -51.4142 -51.4142 20
    endloop
  endfacet
  facet normal -0.471391 -0.881924 0
    outer loop
      vertex -51.1111 -51.6629 0
      vertex -50.7654 -51.8478 20
      vertex -51.1111 -51.6629 20
    endloop
  endfacet
  facet normal -0.471391 -0.881924 -0
    outer loop
      vertex -50.7654 -51.8478 20
      vertex -51.1111 -51.6629 0
      vertex -50.7654 -51.8478 0
    endloop
  endfacet
  facet normal 0.95694 0.290287 0
    outer loop
      vertex 59.9616 54.3902 20
      vertex 59.8478 54.7654 0
      vertex 59.8478 54.7654 20
    endloop
  endfacet
  facet normal 0.95694 0.290287 0
    outer loop
      vertex 59.8478 54.7654 0
      vertex 59.9616 54.3902 20
      vertex 59.9616 54.3902 0
    endloop
  endfacet
  facet normal 0.434216 0.529095 0.729051
    outer loop
      vertex 59.1111 55.6629 20
      vertex 46.4142 45.4142 35
      vertex 59.4142 55.4142 20
    endloop
  endfacet
  facet normal 0.434216 0.529095 0.729051
    outer loop
      vertex 46.4142 45.4142 35
      vertex 59.1111 55.6629 20
      vertex 46.1111 45.6629 35
    endloop
  endfacet
  facet normal 0.218004 -0.178911 0.959409
    outer loop
      vertex 59.4142 16.5858 35
      vertex 34.6629 -51.1111 28
      vertex 59.6629 16.8889 35
    endloop
  endfacet
  facet normal 0.218004 -0.178911 0.959409
    outer loop
      vertex 34.6629 -51.1111 28
      vertex 59.4142 16.5858 35
      vertex 34.4142 -51.4142 28
    endloop
  endfacet
  facet normal 0.634393 -0.773011 0
    outer loop
      vertex 51.1111 -51.6629 0
      vertex 51.4142 -51.4142 20
      vertex 51.1111 -51.6629 20
    endloop
  endfacet
  facet normal 0.634393 -0.773011 0
    outer loop
      vertex 51.4142 -51.4142 20
      vertex 51.1111 -51.6629 0
      vertex 51.4142 -51.4142 0
    endloop
  endfacet
  facet normal 0.471391 -0.881924 0
    outer loop
      vertex 50.7654 -51.8478 0
      vertex 51.1111 -51.6629 20
      vertex 50.7654 -51.8478 20
    endloop
  endfacet
  facet normal 0.471391 -0.881924 0
    outer loop
      vertex 51.1111 -51.6629 20
      vertex 50.7654 -51.8478 0
      vertex 51.1111 -51.6629 0
    endloop
  endfacet
  facet normal 0.634393 0.773011 -0
    outer loop
      vertex 59.4142 55.4142 0
      vertex 59.1111 55.6629 20
      vertex 59.4142 55.4142 20
    endloop
  endfacet
  facet normal 0.634393 0.773011 0
    outer loop
      vertex 59.1111 55.6629 20
      vertex 59.4142 55.4142 0
      vertex 59.1111 55.6629 0
    endloop
  endfacet
  facet normal -0.33391 0.62471 0.705862
    outer loop
      vertex -58.7654 55.8478 20
      vertex -46.1111 45.6629 35
      vertex -45.7654 45.8478 35
    endloop
  endfacet
  facet normal -0.33391 0.62471 0.705862
    outer loop
      vertex -46.1111 45.6629 35
      vertex -58.7654 55.8478 20
      vertex -59.1111 55.6629 20
    endloop
  endfacet
  facet normal -0.434216 0.529095 0.729051
    outer loop
      vertex -59.1111 55.6629 20
      vertex -46.4142 45.4142 35
      vertex -46.1111 45.6629 35
    endloop
  endfacet
  facet normal -0.434216 0.529095 0.729051
    outer loop
      vertex -46.4142 45.4142 35
      vertex -59.1111 55.6629 20
      vertex -59.4142 55.4142 20
    endloop
  endfacet
  facet normal -0.95694 0.290287 0
    outer loop
      vertex -59.9616 54.3902 0
      vertex -59.8478 54.7654 20
      vertex -59.8478 54.7654 0
    endloop
  endfacet
  facet normal -0.95694 0.290287 0
    outer loop
      vertex -59.8478 54.7654 20
      vertex -59.9616 54.3902 0
      vertex -59.9616 54.3902 20
    endloop
  endfacet
  facet normal -0.118843 -0.144811 0.982296
    outer loop
      vertex -59.1111 16.3371 35
      vertex -34.4142 -51.4142 28
      vertex -34.1111 -51.6629 28
    endloop
  endfacet
  facet normal -0.118843 -0.144811 0.982296
    outer loop
      vertex -34.4142 -51.4142 28
      vertex -59.1111 16.3371 35
      vertex -59.4142 16.5858 35
    endloop
  endfacet
  facet normal -0.0677678 -0.126787 0.989612
    outer loop
      vertex -58.7654 16.1522 35
      vertex -34.1111 -51.6629 28
      vertex -33.7654 -51.8478 28
    endloop
  endfacet
  facet normal -0.0677678 -0.126787 0.989612
    outer loop
      vertex -34.1111 -51.6629 28
      vertex -58.7654 16.1522 35
      vertex -59.1111 16.3371 35
    endloop
  endfacet
  facet normal -0.929919 -0.0915882 0.356176
    outer loop
      vertex -60 4 31.4
      vertex -59.9616 17.6098 35
      vertex -60 18 35
    endloop
  endfacet
  facet normal -0.929919 -0.0915884 0.356177
    outer loop
      vertex -59.9616 17.6098 35
      vertex -60 4 31.4
      vertex -59.9616 3.60982 31.4
    endloop
  endfacet
  facet normal -1 0 0
    outer loop
      vertex -60 4 0
      vertex -60 54 20
      vertex -60 54 0
    endloop
  endfacet
  facet normal -1 -0 0
    outer loop
      vertex -60 54 20
      vertex -60 4 0
      vertex -60 18 35
    endloop
  endfacet
  facet normal -1 0 0
    outer loop
      vertex -60 18 35
      vertex -60 4 0
      vertex -60 4 31.4
    endloop
  endfacet
  facet normal -0.290287 -0.95694 0
    outer loop
      vertex -50.7654 -51.8478 0
      vertex -50.3902 -51.9616 20
      vertex -50.7654 -51.8478 20
    endloop
  endfacet
  facet normal -0.290287 -0.95694 -0
    outer loop
      vertex -50.3902 -51.9616 20
      vertex -50.7654 -51.8478 0
      vertex -50.3902 -51.9616 0
    endloop
  endfacet
  facet normal 0.609711 0.304855 0.731653
    outer loop
      vertex 59.8478 54.7654 20
      vertex 46.8478 44.7654 35
      vertex 59.8478 18.7654 35
    endloop
  endfacet
  facet normal 0.785175 0.238182 0.571637
    outer loop
      vertex 59.8478 18.7654 35
      vertex 59.9616 54.3902 20
      vertex 59.8478 54.7654 20
    endloop
  endfacet
  facet normal 0.785177 0.238181 0.571636
    outer loop
      vertex 59.9616 54.3902 20
      vertex 59.8478 18.7654 35
      vertex 59.9616 18.3902 35
    endloop
  endfacet
  facet normal 0.33391 0.62471 0.705862
    outer loop
      vertex 58.7654 55.8478 20
      vertex 46.1111 45.6629 35
      vertex 59.1111 55.6629 20
    endloop
  endfacet
  facet normal 0.33391 0.62471 0.705862
    outer loop
      vertex 46.1111 45.6629 35
      vertex 58.7654 55.8478 20
      vertex 45.7654 45.8478 35
    endloop
  endfacet
  facet normal 0.471391 0.881924 -0
    outer loop
      vertex 59.1111 55.6629 0
      vertex 58.7654 55.8478 20
      vertex 59.1111 55.6629 20
    endloop
  endfacet
  facet normal 0.471391 0.881924 0
    outer loop
      vertex 58.7654 55.8478 20
      vertex 59.1111 55.6629 0
      vertex 58.7654 55.8478 0
    endloop
  endfacet
  facet normal -0.773011 0.634393 0
    outer loop
      vertex -59.6629 55.1111 0
      vertex -59.4142 55.4142 20
      vertex -59.4142 55.4142 0
    endloop
  endfacet
  facet normal -0.773011 0.634393 0
    outer loop
      vertex -59.4142 55.4142 20
      vertex -59.6629 55.1111 0
      vertex -59.6629 55.1111 20
    endloop
  endfacet
  facet normal -0.634393 0.773011 0
    outer loop
      vertex -59.1111 55.6629 0
      vertex -59.4142 55.4142 20
      vertex -59.1111 55.6629 20
    endloop
  endfacet
  facet normal -0.634393 0.773011 0
    outer loop
      vertex -59.4142 55.4142 20
      vertex -59.1111 55.6629 0
      vertex -59.4142 55.4142 0
    endloop
  endfacet
  facet normal -0.63453 -0.192483 0.748546
    outer loop
      vertex -59.9616 3.60982 31.4
      vertex -59.8478 17.2346 35
      vertex -59.9616 17.6098 35
    endloop
  endfacet
  facet normal -0.634531 -0.192483 0.748545
    outer loop
      vertex -59.8478 17.2346 35
      vertex -59.9616 3.60982 31.4
      vertex -59.8478 3.23463 31.4
    endloop
  endfacet
  facet normal 0.929919 -0.0915882 0.356176
    outer loop
      vertex 59.9616 17.6098 35
      vertex 60 4 31.4
      vertex 60 18 35
    endloop
  endfacet
  facet normal 0.929919 -0.0915884 0.356177
    outer loop
      vertex 60 4 31.4
      vertex 59.9616 17.6098 35
      vertex 59.9616 3.60982 31.4
    endloop
  endfacet
  facet normal 0.968742 0.0954119 0.228988
    outer loop
      vertex 59.9616 18.3902 35
      vertex 60 54 20
      vertex 59.9616 54.3902 20
    endloop
  endfacet
  facet normal 0.968742 0.0954123 0.228989
    outer loop
      vertex 60 54 20
      vertex 59.9616 18.3902 35
      vertex 60 18 35
    endloop
  endfacet
  facet normal 0 0 1
    outer loop
      vertex 59.9616 18.3902 35
      vertex 59.9616 17.6098 35
      vertex 60 18 35
    endloop
  endfacet
  facet normal 0 0 1
    outer loop
      vertex 59.8478 18.7654 35
      vertex 59.9616 17.6098 35
      vertex 59.9616 18.3902 35
    endloop
  endfacet
  facet normal 0 0 1
    outer loop
      vertex 59.8478 18.7654 35
      vertex 59.8478 17.2346 35
      vertex 59.9616 17.6098 35
    endloop
  endfacet
  facet normal 0 0 1
    outer loop
      vertex 59.8478 18.7654 35
      vertex 59.6629 16.8889 35
      vertex 59.8478 17.2346 35
    endloop
  endfacet
  facet normal 0 0 1
    outer loop
      vertex 59.8478 18.7654 35
      vertex 59.4142 16.5858 35
      vertex 59.6629 16.8889 35
    endloop
  endfacet
  facet normal 0 0 1
    outer loop
      vertex 59.8478 18.7654 35
      vertex 59.1111 16.3371 35
      vertex 59.4142 16.5858 35
    endloop
  endfacet
  facet normal 0 0 1
    outer loop
      vertex 59.8478 18.7654 35
      vertex 58.7654 16.1522 35
      vertex 59.1111 16.3371 35
    endloop
  endfacet
  facet normal 0 0 1
    outer loop
      vertex 46.8478 44.7654 35
      vertex 58.7654 16.1522 35
      vertex 59.8478 18.7654 35
    endloop
  endfacet
  facet normal 0 0 1
    outer loop
      vertex 45 46 35
      vertex 46.8478 44.7654 35
      vertex 46.6629 45.1111 35
    endloop
  endfacet
  facet normal 0 0 1
    outer loop
      vertex 45 46 35
      vertex 46.6629 45.1111 35
      vertex 46.4142 45.4142 35
    endloop
  endfacet
  facet normal 0 0 1
    outer loop
      vertex 45 46 35
      vertex 46.4142 45.4142 35
      vertex 46.1111 45.6629 35
    endloop
  endfacet
  facet normal 0 0 1
    outer loop
      vertex 45 46 35
      vertex 46.1111 45.6629 35
      vertex 45.7654 45.8478 35
    endloop
  endfacet
  facet normal 0 0 1
    outer loop
      vertex 45 46 35
      vertex 45.7654 45.8478 35
      vertex 45.3902 45.9616 35
    endloop
  endfacet
  facet normal 0 0 1
    outer loop
      vertex 15.7654 2.15224 35
      vertex 46.8478 44.7654 35
      vertex 45 46 35
    endloop
  endfacet
  facet normal 0 0 1
    outer loop
      vertex 46.8478 44.7654 35
      vertex 15.7654 2.15224 35
      vertex 58.7654 16.1522 35
    endloop
  endfacet
  facet normal 0 0 1
    outer loop
      vertex 15 2 35
      vertex 15.7654 2.15224 35
      vertex 45 46 35
    endloop
  endfacet
  facet normal 0 0 1
    outer loop
      vertex 15.7654 2.15224 35
      vertex 15 2 35
      vertex 15.3902 2.03843 35
    endloop
  endfacet
  facet normal 0 0 1
    outer loop
      vertex 45 46 35
      vertex -15 2 35
      vertex 15 2 35
    endloop
  endfacet
  facet normal -0 0 1
    outer loop
      vertex -45 46 35
      vertex -15 2 35
      vertex 45 46 35
    endloop
  endfacet
  facet normal -0 -0 1
    outer loop
      vertex -15.7654 2.15224 35
      vertex -15 2 35
      vertex -45 46 35
    endloop
  endfacet
  facet normal 0 0 1
    outer loop
      vertex -15 2 35
      vertex -15.7654 2.15224 35
      vertex -15.3902 2.03843 35
    endloop
  endfacet
  facet normal 0 0 1
    outer loop
      vertex -46.8478 44.7654 35
      vertex -45 46 35
      vertex -45.3902 45.9616 35
    endloop
  endfacet
  facet normal 0 0 1
    outer loop
      vertex -46.8478 44.7654 35
      vertex -45.3902 45.9616 35
      vertex -45.7654 45.8478 35
    endloop
  endfacet
  facet normal 0 0 1
    outer loop
      vertex -46.8478 44.7654 35
      vertex -45.7654 45.8478 35
      vertex -46.1111 45.6629 35
    endloop
  endfacet
  facet normal 0 0 1
    outer loop
      vertex -46.8478 44.7654 35
      vertex -46.1111 45.6629 35
      vertex -46.4142 45.4142 35
    endloop
  endfacet
  facet normal 0 0 1
    outer loop
      vertex -46.8478 44.7654 35
      vertex -46.4142 45.4142 35
      vertex -46.6629 45.1111 35
    endloop
  endfacet
  facet normal 0 0 1
    outer loop
      vertex -45 46 35
      vertex -46.8478 44.7654 35
      vertex -15.7654 2.15224 35
    endloop
  endfacet
  facet normal 0 0 1
    outer loop
      vertex -46.8478 44.7654 35
      vertex -58.7654 16.1522 35
      vertex -15.7654 2.15224 35
    endloop
  endfacet
  facet normal -0 0 1
    outer loop
      vertex -59.8478 18.7654 35
      vertex -58.7654 16.1522 35
      vertex -46.8478 44.7654 35
    endloop
  endfacet
  facet normal 0 0 1
    outer loop
      vertex -58.7654 16.1522 35
      vertex -59.8478 18.7654 35
      vertex -59.1111 16.3371 35
    endloop
  endfacet
  facet normal 0 0 1
    outer loop
      vertex -59.1111 16.3371 35
      vertex -59.8478 18.7654 35
      vertex -59.4142 16.5858 35
    endloop
  endfacet
  facet normal 0 0 1
    outer loop
      vertex -59.4142 16.5858 35
      vertex -59.8478 18.7654 35
      vertex -59.6629 16.8889 35
    endloop
  endfacet
  facet normal 0 0 1
    outer loop
      vertex -59.8478 18.7654 35
      vertex -59.8478 17.2346 35
      vertex -59.6629 16.8889 35
    endloop
  endfacet
  facet normal -0 0 1
    outer loop
      vertex -59.9616 18.3902 35
      vertex -59.8478 17.2346 35
      vertex -59.8478 18.7654 35
    endloop
  endfacet
  facet normal 0 0 1
    outer loop
      vertex -59.9616 18.3902 35
      vertex -59.9616 17.6098 35
      vertex -59.8478 17.2346 35
    endloop
  endfacet
  facet normal 0 -0 1
    outer loop
      vertex -59.9616 17.6098 35
      vertex -59.9616 18.3902 35
      vertex -60 18 35
    endloop
  endfacet
  facet normal -0.968742 0.0954119 0.228988
    outer loop
      vertex -60 54 20
      vertex -59.9616 18.3902 35
      vertex -59.9616 54.3902 20
    endloop
  endfacet
  facet normal -0.968742 0.0954123 0.228989
    outer loop
      vertex -59.9616 18.3902 35
      vertex -60 54 20
      vertex -60 18 35
    endloop
  endfacet
  facet normal 0.63453 -0.192483 0.748546
    outer loop
      vertex 59.8478 17.2346 35
      vertex 59.9616 3.60982 31.4
      vertex 59.9616 17.6098 35
    endloop
  endfacet
  facet normal 0.634531 -0.192483 0.748545
    outer loop
      vertex 59.9616 3.60982 31.4
      vertex 59.8478 17.2346 35
      vertex 59.8478 3.23463 31.4
    endloop
  endfacet
  facet normal 0.599606 0.320492 0.73332
    outer loop
      vertex 46.6629 45.1111 35
      vertex 59.8478 54.7654 20
      vertex 59.6629 55.1111 20
    endloop
  endfacet
  facet normal 0.599606 0.320492 0.73332
    outer loop
      vertex 59.8478 54.7654 20
      vertex 46.6629 45.1111 35
      vertex 46.8478 44.7654 35
    endloop
  endfacet
  facet normal 0.521832 0.428256 0.737759
    outer loop
      vertex 59.4142 55.4142 20
      vertex 46.6629 45.1111 35
      vertex 59.6629 55.1111 20
    endloop
  endfacet
  facet normal 0.521832 0.428256 0.737759
    outer loop
      vertex 46.6629 45.1111 35
      vertex 59.4142 55.4142 20
      vertex 46.4142 45.4142 35
    endloop
  endfacet
  facet normal 0.773011 -0.634393 0
    outer loop
      vertex -57.6629 53.1111 17.9
      vertex -57.4142 53.4142 0
      vertex -57.4142 53.4142 17.9
    endloop
  endfacet
  facet normal 0.773011 -0.634393 0
    outer loop
      vertex -57.4142 53.4142 0
      vertex -57.6629 53.1111 17.9
      vertex -57.6629 53.1111 0
    endloop
  endfacet
  facet normal -0.0629565 -0.830779 -0.55303
    outer loop
      vertex 56 54 17.9
      vertex 43 45 32.9
      vertex 12 58 16.9
    endloop
  endfacet
  facet normal -0.011131 0.113015 -0.993531
    outer loop
      vertex 56 14 32.9
      vertex 56.3902 14.0384 32.9
      vertex 31 -50 25.9
    endloop
  endfacet
  facet normal -0 -0.776114 -0.630593
    outer loop
      vertex 12 58 16.9
      vertex 43 45 32.9
      vertex -12 58 16.9
    endloop
  endfacet
  facet normal 0.773011 0.634393 0
    outer loop
      vertex -49.4142 -49.4142 17.9
      vertex -49.6629 -49.1111 0
      vertex -49.6629 -49.1111 17.9
    endloop
  endfacet
  facet normal 0.773011 0.634393 0
    outer loop
      vertex -49.6629 -49.1111 0
      vertex -49.4142 -49.4142 17.9
      vertex -49.4142 -49.4142 0
    endloop
  endfacet
  facet normal 0.33391 -0.62471 -0.705862
    outer loop
      vertex -44.1111 43.6629 32.9
      vertex -56.7654 53.8478 17.9
      vertex -43.7654 43.8478 32.9
    endloop
  endfacet
  facet normal 0.33391 -0.62471 -0.705862
    outer loop
      vertex -56.7654 53.8478 17.9
      vertex -44.1111 43.6629 32.9
      vertex -57.1111 53.6629 17.9
    endloop
  endfacet
  facet normal -0.987441 0.15799 0
    outer loop
      vertex 49.9616 -48.3902 17.9
      vertex 57.9616 1.60982 0
      vertex 49.9616 -48.3902 0
    endloop
  endfacet
  facet normal -0.987441 0.15799 0
    outer loop
      vertex 57.9616 1.60982 0
      vertex 49.9616 -48.3902 17.9
      vertex 57.9616 1.60982 29
    endloop
  endfacet
  facet normal -0.491975 0.262964 -0.829946
    outer loop
      vertex 49.8478 -48.7654 17.9
      vertex 57.6629 0.888859 29
      vertex 57.8478 1.23463 29
    endloop
  endfacet
  facet normal -0.491978 0.262964 -0.829944
    outer loop
      vertex 57.6629 0.888859 29
      vertex 49.8478 -48.7654 17.9
      vertex 49.6629 -49.1111 17.9
    endloop
  endfacet
  facet normal -0.634393 -0.773011 0
    outer loop
      vertex 57.1111 53.6629 0
      vertex 57.4142 53.4142 17.9
      vertex 57.1111 53.6629 17.9
    endloop
  endfacet
  facet normal -0.634393 -0.773011 -0
    outer loop
      vertex 57.4142 53.4142 17.9
      vertex 57.1111 53.6629 0
      vertex 57.4142 53.4142 0
    endloop
  endfacet
  facet normal 0.995185 -0.0980162 0
    outer loop
      vertex -58 52 17.9
      vertex -57.9616 52.3902 0
      vertex -57.9616 52.3902 17.9
    endloop
  endfacet
  facet normal 0.995185 -0.0980162 0
    outer loop
      vertex -57.9616 52.3902 0
      vertex -58 52 17.9
      vertex -58 52 0
    endloop
  endfacet
  facet normal 0.81407 0.246946 -0.52565
    outer loop
      vertex -57.8478 1.23463 29
      vertex -49.9616 -48.3902 17.9
      vertex -57.9616 1.60982 29
    endloop
  endfacet
  facet normal 0.814066 0.246946 -0.525656
    outer loop
      vertex -49.9616 -48.3902 17.9
      vertex -57.8478 1.23463 29
      vertex -49.8478 -48.7654 17.9
    endloop
  endfacet
  facet normal 0.881924 0.471391 0
    outer loop
      vertex -49.6629 -49.1111 17.9
      vertex -49.8478 -48.7654 0
      vertex -49.8478 -48.7654 17.9
    endloop
  endfacet
  facet normal 0.881924 0.471391 0
    outer loop
      vertex -49.8478 -48.7654 0
      vertex -49.6629 -49.1111 17.9
      vertex -49.6629 -49.1111 0
    endloop
  endfacet
  facet normal 0 1 -0
    outer loop
      vertex 48 -50 0
      vertex 31 -50 25.9
      vertex 48 -50 17.9
    endloop
  endfacet
  facet normal 0 1 0
    outer loop
      vertex 31 -50 25.9
      vertex 48 -50 0
      vertex -31 -50 25.9
    endloop
  endfacet
  facet normal 0 1 0
    outer loop
      vertex -48 -50 0
      vertex -31 -50 25.9
      vertex 48 -50 0
    endloop
  endfacet
  facet normal 0 1 0
    outer loop
      vertex -31 -50 25.9
      vertex -48 -50 0
      vertex -48 -50 17.9
    endloop
  endfacet
  facet normal -0.385078 0.247659 -0.889033
    outer loop
      vertex 57.6629 14.8889 32.9
      vertex 57.6629 0.888859 29
      vertex 32.6629 -49.1111 25.9
    endloop
  endfacet
  facet normal -0.343864 -0.643334 -0.684016
    outer loop
      vertex 44.1111 44.6629 32.9
      vertex 56.7654 53.8478 17.9
      vertex 57.1111 53.6629 17.9
    endloop
  endfacet
  facet normal -0.343864 -0.643334 -0.684016
    outer loop
      vertex 56.7654 53.8478 17.9
      vertex 44.1111 44.6629 32.9
      vertex 43.7654 44.8478 32.9
    endloop
  endfacet
  facet normal 0.011131 0.113016 -0.993531
    outer loop
      vertex -31 -50 25.9
      vertex -31.3902 -49.9616 25.9
      vertex -56.3902 14.0384 32.9
    endloop
  endfacet
  facet normal 0.599606 -0.320492 -0.73332
    outer loop
      vertex -57.8478 52.7654 17.9
      vertex -44.6629 43.1111 32.9
      vertex -44.8478 42.7654 32.9
    endloop
  endfacet
  facet normal 0.599606 -0.320492 -0.73332
    outer loop
      vertex -44.6629 43.1111 32.9
      vertex -57.8478 52.7654 17.9
      vertex -57.6629 53.1111 17.9
    endloop
  endfacet
  facet normal 0.0905357 -0.995893 0
    outer loop
      vertex -56 54 0
      vertex -12 58 16.9
      vertex -56 54 17.9
    endloop
  endfacet
  facet normal 0.0905357 -0.995893 0
    outer loop
      vertex -12 58 16.9
      vertex -56 54 0
      vertex -12 58 0
    endloop
  endfacet
  facet normal 0 -1 0
    outer loop
      vertex -12 58 0
      vertex 12 58 16.9
      vertex -12 58 16.9
    endloop
  endfacet
  facet normal 0 -1 -0
    outer loop
      vertex 12 58 16.9
      vertex -12 58 0
      vertex 12 58 0
    endloop
  endfacet
  facet normal -0.471391 -0.881924 0
    outer loop
      vertex 56.7654 53.8478 0
      vertex 57.1111 53.6629 17.9
      vertex 56.7654 53.8478 17.9
    endloop
  endfacet
  facet normal -0.471391 -0.881924 -0
    outer loop
      vertex 57.1111 53.6629 17.9
      vertex 56.7654 53.8478 0
      vertex 57.1111 53.6629 0
    endloop
  endfacet
  facet normal -0.0905357 -0.995893 0
    outer loop
      vertex 56 54 0
      vertex 12 58 16.9
      vertex 12 58 0
    endloop
  endfacet
  facet normal -0.0905357 -0.995893 0
    outer loop
      vertex 12 58 16.9
      vertex 56 54 0
      vertex 56 54 17.9
    endloop
  endfacet
  facet normal -0.532957 -0.437386 -0.724328
    outer loop
      vertex 44.6629 44.1111 32.9
      vertex 57.4142 53.4142 17.9
      vertex 57.6629 53.1111 17.9
    endloop
  endfacet
  facet normal -0.532957 -0.437386 -0.724328
    outer loop
      vertex 57.4142 53.4142 17.9
      vertex 44.6629 44.1111 32.9
      vertex 44.4142 44.4142 32.9
    endloop
  endfacet
  facet normal 0.290287 -0.95694 0
    outer loop
      vertex -56.7654 53.8478 0
      vertex -56.3902 53.9616 17.9
      vertex -56.7654 53.8478 17.9
    endloop
  endfacet
  facet normal 0.290287 -0.95694 0
    outer loop
      vertex -56.3902 53.9616 17.9
      vertex -56.7654 53.8478 0
      vertex -56.3902 53.9616 0
    endloop
  endfacet
  facet normal 0.0959573 0.974276 -0.203909
    outer loop
      vertex -48 -50 17.9
      vertex -31.3902 -49.9616 25.9
      vertex -31 -50 25.9
    endloop
  endfacet
  facet normal 0.0959569 0.974276 -0.203908
    outer loop
      vertex -31.3902 -49.9616 25.9
      vertex -48 -50 17.9
      vertex -48.3902 -49.9616 17.9
    endloop
  endfacet
  facet normal 0.011131 0.113015 -0.993531
    outer loop
      vertex -56 14 32.9
      vertex -31 -50 25.9
      vertex -56.3902 14.0384 32.9
    endloop
  endfacet
  facet normal 0 0.108727 -0.994072
    outer loop
      vertex -31 -50 25.9
      vertex 56 14 32.9
      vertex 31 -50 25.9
    endloop
  endfacet
  facet normal 0 0.108727 -0.994072
    outer loop
      vertex 56 14 32.9
      vertex -31 -50 25.9
      vertex -56 14 32.9
    endloop
  endfacet
  facet normal 1 0 0
    outer loop
      vertex -58 16 32.9
      vertex -58 52 0
      vertex -58 52 17.9
    endloop
  endfacet
  facet normal 1 0 0
    outer loop
      vertex -58 2 0
      vertex -58 16 32.9
      vertex -58 2 29
    endloop
  endfacet
  facet normal 1 0 0
    outer loop
      vertex -58 16 32.9
      vertex -58 2 0
      vertex -58 52 0
    endloop
  endfacet
  facet normal 0.995185 0.0980165 0
    outer loop
      vertex -57.9616 1.60982 29
      vertex -58 2 0
      vertex -58 2 29
    endloop
  endfacet
  facet normal 0.995185 0.0980165 0
    outer loop
      vertex -58 2 0
      vertex -57.9616 1.60982 29
      vertex -57.9616 1.60982 0
    endloop
  endfacet
  facet normal 0.00884861 -0.760981 -0.648714
    outer loop
      vertex -12 58 16.9
      vertex 43 45 32.9
      vertex -43 44 32.9
    endloop
  endfacet
  facet normal -0.95694 -0.290287 0
    outer loop
      vertex 57.9616 52.3902 0
      vertex 57.8478 52.7654 17.9
      vertex 57.8478 52.7654 0
    endloop
  endfacet
  facet normal -0.95694 -0.290287 0
    outer loop
      vertex 57.8478 52.7654 17.9
      vertex 57.9616 52.3902 0
      vertex 57.9616 52.3902 17.9
    endloop
  endfacet
  facet normal -1 0 0
    outer loop
      vertex 58 52 0
      vertex 58 16 32.9
      vertex 58 52 17.9
    endloop
  endfacet
  facet normal -1 0 0
    outer loop
      vertex 58 2 0
      vertex 58 16 32.9
      vertex 58 52 0
    endloop
  endfacet
  facet normal -1 0 0
    outer loop
      vertex 58 16 32.9
      vertex 58 2 0
      vertex 58 2 29
    endloop
  endfacet
  facet normal 0.491978 0.262964 -0.829944
    outer loop
      vertex -49.8478 -48.7654 17.9
      vertex -57.6629 0.888859 29
      vertex -49.6629 -49.1111 17.9
    endloop
  endfacet
  facet normal 0.491975 0.262964 -0.829946
    outer loop
      vertex -57.6629 0.888859 29
      vertex -49.8478 -48.7654 17.9
      vertex -57.8478 1.23463 29
    endloop
  endfacet
  facet normal -0.41118 0.259763 -0.873758
    outer loop
      vertex 57.6629 0.888859 29
      vertex 49.6629 -49.1111 17.9
      vertex 32.6629 -49.1111 25.9
    endloop
  endfacet
  facet normal -0.401962 0.329881 -0.854169
    outer loop
      vertex 49.4142 -49.4142 17.9
      vertex 32.6629 -49.1111 25.9
      vertex 49.6629 -49.1111 17.9
    endloop
  endfacet
  facet normal -0.401962 0.329881 -0.854169
    outer loop
      vertex 32.6629 -49.1111 25.9
      vertex 49.4142 -49.4142 17.9
      vertex 32.4142 -49.4142 25.9
    endloop
  endfacet
  facet normal -0.773011 0.634393 0
    outer loop
      vertex 49.4142 -49.4142 0
      vertex 49.6629 -49.1111 17.9
      vertex 49.6629 -49.1111 0
    endloop
  endfacet
  facet normal -0.773011 0.634393 0
    outer loop
      vertex 49.6629 -49.1111 17.9
      vertex 49.4142 -49.4142 0
      vertex 49.4142 -49.4142 17.9
    endloop
  endfacet
  facet normal -0.881924 -0.471391 0
    outer loop
      vertex 57.8478 52.7654 0
      vertex 57.6629 53.1111 17.9
      vertex 57.6629 53.1111 0
    endloop
  endfacet
  facet normal -0.881924 -0.471391 0
    outer loop
      vertex 57.6629 53.1111 17.9
      vertex 57.8478 52.7654 0
      vertex 57.8478 52.7654 17.9
    endloop
  endfacet
  facet normal -0.44554 -0.542893 -0.711871
    outer loop
      vertex 44.4142 44.4142 32.9
      vertex 57.1111 53.6629 17.9
      vertex 57.4142 53.4142 17.9
    endloop
  endfacet
  facet normal -0.44554 -0.542893 -0.711871
    outer loop
      vertex 57.1111 53.6629 17.9
      vertex 44.4142 44.4142 32.9
      vertex 44.1111 44.6629 32.9
    endloop
  endfacet
  facet normal 0.662585 0.200993 -0.721514
    outer loop
      vertex -57.9616 1.60982 29
      vertex -57.8478 15.2346 32.9
      vertex -57.8478 1.23463 29
    endloop
  endfacet
  facet normal 0.662585 0.200993 -0.721514
    outer loop
      vertex -57.8478 15.2346 32.9
      vertex -57.9616 1.60982 29
      vertex -57.9616 15.6098 32.9
    endloop
  endfacet
  facet normal 0 0 -1
    outer loop
      vertex 57.9616 15.6098 32.9
      vertex 57.9616 16.3902 32.9
      vertex 58 16 32.9
    endloop
  endfacet
  facet normal 0 0 -1
    outer loop
      vertex 57.8478 15.2346 32.9
      vertex 57.9616 16.3902 32.9
      vertex 57.9616 15.6098 32.9
    endloop
  endfacet
  facet normal 0 0 -1
    outer loop
      vertex 57.8478 15.2346 32.9
      vertex 57.8478 16.7654 32.9
      vertex 57.9616 16.3902 32.9
    endloop
  endfacet
  facet normal 0 0 -1
    outer loop
      vertex 57.6629 14.8889 32.9
      vertex 57.8478 16.7654 32.9
      vertex 57.8478 15.2346 32.9
    endloop
  endfacet
  facet normal 0 0 -1
    outer loop
      vertex 57.4142 14.5858 32.9
      vertex 57.8478 16.7654 32.9
      vertex 57.6629 14.8889 32.9
    endloop
  endfacet
  facet normal 0 0 -1
    outer loop
      vertex 57.1111 14.3371 32.9
      vertex 57.8478 16.7654 32.9
      vertex 57.4142 14.5858 32.9
    endloop
  endfacet
  facet normal 0 0 -1
    outer loop
      vertex 56.7654 14.1522 32.9
      vertex 57.8478 16.7654 32.9
      vertex 57.1111 14.3371 32.9
    endloop
  endfacet
  facet normal 0 0 -1
    outer loop
      vertex 56.3902 14.0384 32.9
      vertex 57.8478 16.7654 32.9
      vertex 56.7654 14.1522 32.9
    endloop
  endfacet
  facet normal 0 0 -1
    outer loop
      vertex 56 14 32.9
      vertex 57.8478 16.7654 32.9
      vertex 56.3902 14.0384 32.9
    endloop
  endfacet
  facet normal 0 0 -1
    outer loop
      vertex 56 14 32.9
      vertex 44.8478 43.7654 32.9
      vertex 57.8478 16.7654 32.9
    endloop
  endfacet
  facet normal 0 0 -1
    outer loop
      vertex 43 45 32.9
      vertex 44.8478 43.7654 32.9
      vertex 56 14 32.9
    endloop
  endfacet
  facet normal 0 0 -1
    outer loop
      vertex 44.8478 43.7654 32.9
      vertex 43 45 32.9
      vertex 44.6629 44.1111 32.9
    endloop
  endfacet
  facet normal 0 0 -1
    outer loop
      vertex 44.6629 44.1111 32.9
      vertex 43 45 32.9
      vertex 44.4142 44.4142 32.9
    endloop
  endfacet
  facet normal 0 0 -1
    outer loop
      vertex 44.4142 44.4142 32.9
      vertex 43 45 32.9
      vertex 44.1111 44.6629 32.9
    endloop
  endfacet
  facet normal 0 0 -1
    outer loop
      vertex 44.1111 44.6629 32.9
      vertex 43 45 32.9
      vertex 43.7654 44.8478 32.9
    endloop
  endfacet
  facet normal 0 0 -1
    outer loop
      vertex 43.7654 44.8478 32.9
      vertex 43 45 32.9
      vertex 43.3902 44.9616 32.9
    endloop
  endfacet
  facet normal 0 0 -1
    outer loop
      vertex 56 14 32.9
      vertex -43 44 32.9
      vertex 43 45 32.9
    endloop
  endfacet
  facet normal 0 0 -1
    outer loop
      vertex -56 14 32.9
      vertex -43 44 32.9
      vertex 56 14 32.9
    endloop
  endfacet
  facet normal 0 -0 -1
    outer loop
      vertex -44.8478 42.7654 32.9
      vertex -43 44 32.9
      vertex -56 14 32.9
    endloop
  endfacet
  facet normal 0 0 -1
    outer loop
      vertex -43 44 32.9
      vertex -44.8478 42.7654 32.9
      vertex -43.3902 43.9616 32.9
    endloop
  endfacet
  facet normal 0 0 -1
    outer loop
      vertex -43.3902 43.9616 32.9
      vertex -44.8478 42.7654 32.9
      vertex -43.7654 43.8478 32.9
    endloop
  endfacet
  facet normal 0 0 -1
    outer loop
      vertex -44.1111 43.6629 32.9
      vertex -44.8478 42.7654 32.9
      vertex -44.4142 43.4142 32.9
    endloop
  endfacet
  facet normal 0 0 -1
    outer loop
      vertex -44.4142 43.4142 32.9
      vertex -44.8478 42.7654 32.9
      vertex -44.6629 43.1111 32.9
    endloop
  endfacet
  facet normal 0 0 -1
    outer loop
      vertex -43.7654 43.8478 32.9
      vertex -44.8478 42.7654 32.9
      vertex -44.1111 43.6629 32.9
    endloop
  endfacet
  facet normal 0 0 -1
    outer loop
      vertex -57.8478 16.7654 32.9
      vertex -56 14 32.9
      vertex -56.3902 14.0384 32.9
    endloop
  endfacet
  facet normal 0 0 -1
    outer loop
      vertex -57.8478 16.7654 32.9
      vertex -56.3902 14.0384 32.9
      vertex -56.7654 14.1522 32.9
    endloop
  endfacet
  facet normal 0 0 -1
    outer loop
      vertex -57.8478 16.7654 32.9
      vertex -56.7654 14.1522 32.9
      vertex -57.1111 14.3371 32.9
    endloop
  endfacet
  facet normal 0 0 -1
    outer loop
      vertex -57.8478 16.7654 32.9
      vertex -57.1111 14.3371 32.9
      vertex -57.4142 14.5858 32.9
    endloop
  endfacet
  facet normal 0 0 -1
    outer loop
      vertex -57.8478 16.7654 32.9
      vertex -57.4142 14.5858 32.9
      vertex -57.6629 14.8889 32.9
    endloop
  endfacet
  facet normal 0 0 -1
    outer loop
      vertex -57.8478 16.7654 32.9
      vertex -57.6629 14.8889 32.9
      vertex -57.8478 15.2346 32.9
    endloop
  endfacet
  facet normal 0 0 -1
    outer loop
      vertex -56 14 32.9
      vertex -57.8478 16.7654 32.9
      vertex -44.8478 42.7654 32.9
    endloop
  endfacet
  facet normal 0 0 -1
    outer loop
      vertex -57.9616 15.6098 32.9
      vertex -57.8478 16.7654 32.9
      vertex -57.8478 15.2346 32.9
    endloop
  endfacet
  facet normal 0 0 -1
    outer loop
      vertex -57.9616 15.6098 32.9
      vertex -57.9616 16.3902 32.9
      vertex -57.8478 16.7654 32.9
    endloop
  endfacet
  facet normal 0 -0 -1
    outer loop
      vertex -57.9616 16.3902 32.9
      vertex -57.9616 15.6098 32.9
      vertex -58 16 32.9
    endloop
  endfacet
  facet normal 0.0598687 -0.805833 -0.589108
    outer loop
      vertex -12 58 16.9
      vertex -43 44 32.9
      vertex -56 54 17.9
    endloop
  endfacet
  facet normal 0.881924 -0.471391 0
    outer loop
      vertex -57.8478 52.7654 17.9
      vertex -57.6629 53.1111 0
      vertex -57.6629 53.1111 17.9
    endloop
  endfacet
  facet normal 0.881924 -0.471391 0
    outer loop
      vertex -57.6629 53.1111 0
      vertex -57.8478 52.7654 17.9
      vertex -57.8478 52.7654 0
    endloop
  endfacet
  facet normal 0.41118 0.259763 -0.873758
    outer loop
      vertex -32.6629 -49.1111 25.9
      vertex -49.6629 -49.1111 17.9
      vertex -57.6629 0.888859 29
    endloop
  endfacet
  facet normal 0.401962 0.329881 -0.854169
    outer loop
      vertex -49.4142 -49.4142 17.9
      vertex -32.6629 -49.1111 25.9
      vertex -32.4142 -49.4142 25.9
    endloop
  endfacet
  facet normal 0.401962 0.329881 -0.854169
    outer loop
      vertex -32.6629 -49.1111 25.9
      vertex -49.4142 -49.4142 17.9
      vertex -49.6629 -49.1111 17.9
    endloop
  endfacet
  facet normal 0.12934 0.157601 -0.978996
    outer loop
      vertex -32.4142 -49.4142 25.9
      vertex -57.1111 14.3371 32.9
      vertex -32.1111 -49.6629 25.9
    endloop
  endfacet
  facet normal 0.12934 0.157601 -0.978996
    outer loop
      vertex -57.1111 14.3371 32.9
      vertex -32.4142 -49.4142 25.9
      vertex -57.4142 14.5858 32.9
    endloop
  endfacet
  facet normal 0.634393 0.773011 -0
    outer loop
      vertex -49.1111 -49.6629 0
      vertex -49.4142 -49.4142 17.9
      vertex -49.1111 -49.6629 17.9
    endloop
  endfacet
  facet normal 0.634393 0.773011 0
    outer loop
      vertex -49.4142 -49.4142 17.9
      vertex -49.1111 -49.6629 0
      vertex -49.4142 -49.4142 0
    endloop
  endfacet
  facet normal 0.0980162 0.995185 -0
    outer loop
      vertex -48 -50 0
      vertex -48.3902 -49.9616 17.9
      vertex -48 -50 17.9
    endloop
  endfacet
  facet normal 0.0980162 0.995185 0
    outer loop
      vertex -48.3902 -49.9616 17.9
      vertex -48 -50 0
      vertex -48.3902 -49.9616 0
    endloop
  endfacet
  facet normal 0.93877 0.0924601 -0.331908
    outer loop
      vertex -57.9616 15.6098 32.9
      vertex -58 2 29
      vertex -58 16 32.9
    endloop
  endfacet
  facet normal 0.93877 0.0924601 -0.331908
    outer loop
      vertex -58 2 29
      vertex -57.9616 15.6098 32.9
      vertex -57.9616 1.60982 29
    endloop
  endfacet
  facet normal -0.0980162 -0.995185 0
    outer loop
      vertex 56 54 0
      vertex 56.3902 53.9616 17.9
      vertex 56 54 17.9
    endloop
  endfacet
  facet normal -0.0980162 -0.995185 -0
    outer loop
      vertex 56.3902 53.9616 17.9
      vertex 56 54 0
      vertex 56.3902 53.9616 0
    endloop
  endfacet
  facet normal -0.290287 -0.95694 0
    outer loop
      vertex 56.3902 53.9616 0
      vertex 56.7654 53.8478 17.9
      vertex 56.3902 53.9616 17.9
    endloop
  endfacet
  facet normal -0.290287 -0.95694 -0
    outer loop
      vertex 56.7654 53.8478 17.9
      vertex 56.3902 53.9616 0
      vertex 56.7654 53.8478 0
    endloop
  endfacet
  facet normal 0.95694 0.290287 0
    outer loop
      vertex -49.8478 -48.7654 17.9
      vertex -49.9616 -48.3902 0
      vertex -49.9616 -48.3902 17.9
    endloop
  endfacet
  facet normal 0.95694 0.290287 0
    outer loop
      vertex -49.9616 -48.3902 0
      vertex -49.8478 -48.7654 17.9
      vertex -49.8478 -48.7654 0
    endloop
  endfacet
  facet normal 0.987441 0.15799 0
    outer loop
      vertex -49.9616 -48.3902 17.9
      vertex -57.9616 1.60982 0
      vertex -57.9616 1.60982 29
    endloop
  endfacet
  facet normal 0.987441 0.15799 0
    outer loop
      vertex -57.9616 1.60982 0
      vertex -49.9616 -48.3902 17.9
      vertex -49.9616 -48.3902 0
    endloop
  endfacet
  facet normal -0.12934 0.157601 -0.978996
    outer loop
      vertex 32.4142 -49.4142 25.9
      vertex 57.1111 14.3371 32.9
      vertex 57.4142 14.5858 32.9
    endloop
  endfacet
  facet normal -0.12934 0.157601 -0.978996
    outer loop
      vertex 57.1111 14.3371 32.9
      vertex 32.4142 -49.4142 25.9
      vertex 32.1111 -49.6629 25.9
    endloop
  endfacet
  facet normal -0.241588 0.198267 -0.949908
    outer loop
      vertex 32.6629 -49.1111 25.9
      vertex 57.4142 14.5858 32.9
      vertex 57.6629 14.8889 32.9
    endloop
  endfacet
  facet normal -0.24159 0.198267 -0.949908
    outer loop
      vertex 57.4142 14.5858 32.9
      vertex 32.6629 -49.1111 25.9
      vertex 32.4142 -49.4142 25.9
    endloop
  endfacet
  facet normal -0.0729977 0.13657 -0.987937
    outer loop
      vertex 32.1111 -49.6629 25.9
      vertex 56.7654 14.1522 32.9
      vertex 57.1111 14.3371 32.9
    endloop
  endfacet
  facet normal -0.0729973 0.13657 -0.987937
    outer loop
      vertex 56.7654 14.1522 32.9
      vertex 32.1111 -49.6629 25.9
      vertex 31.7654 -49.8478 25.9
    endloop
  endfacet
  facet normal -0.968742 -0.0954119 -0.228988
    outer loop
      vertex 58 52 17.9
      vertex 57.9616 16.3902 32.9
      vertex 57.9616 52.3902 17.9
    endloop
  endfacet
  facet normal -0.968742 -0.0954123 -0.228989
    outer loop
      vertex 57.9616 16.3902 32.9
      vertex 58 52 17.9
      vertex 58 16 32.9
    endloop
  endfacet
  facet normal -0.662585 0.200993 -0.721514
    outer loop
      vertex 57.8478 15.2346 32.9
      vertex 57.9616 1.60982 29
      vertex 57.8478 1.23463 29
    endloop
  endfacet
  facet normal -0.662585 0.200993 -0.721514
    outer loop
      vertex 57.9616 1.60982 29
      vertex 57.8478 15.2346 32.9
      vertex 57.9616 15.6098 32.9
    endloop
  endfacet
  facet normal -0.81407 0.246946 -0.52565
    outer loop
      vertex 49.9616 -48.3902 17.9
      vertex 57.8478 1.23463 29
      vertex 57.9616 1.60982 29
    endloop
  endfacet
  facet normal -0.814066 0.246946 -0.525656
    outer loop
      vertex 57.8478 1.23463 29
      vertex 49.9616 -48.3902 17.9
      vertex 49.8478 -48.7654 17.9
    endloop
  endfacet
  facet normal -0.995185 0.0980165 0
    outer loop
      vertex 57.9616 1.60982 0
      vertex 58 2 29
      vertex 58 2 0
    endloop
  endfacet
  facet normal -0.995185 0.0980165 0
    outer loop
      vertex 58 2 29
      vertex 57.9616 1.60982 0
      vertex 57.9616 1.60982 29
    endloop
  endfacet
  facet normal -0.0959569 0.974276 -0.203908
    outer loop
      vertex 48 -50 17.9
      vertex 31.3902 -49.9616 25.9
      vertex 48.3902 -49.9616 17.9
    endloop
  endfacet
  facet normal -0.0959573 0.974276 -0.203909
    outer loop
      vertex 31.3902 -49.9616 25.9
      vertex 48 -50 17.9
      vertex 31 -50 25.9
    endloop
  endfacet
  facet normal -0.95694 0.290287 0
    outer loop
      vertex 49.8478 -48.7654 0
      vertex 49.9616 -48.3902 17.9
      vertex 49.9616 -48.3902 0
    endloop
  endfacet
  facet normal -0.95694 0.290287 0
    outer loop
      vertex 49.9616 -48.3902 17.9
      vertex 49.8478 -48.7654 0
      vertex 49.8478 -48.7654 17.9
    endloop
  endfacet
  facet normal 0.247062 0.81445 -0.525006
    outer loop
      vertex -48.3902 -49.9616 17.9
      vertex -31.7654 -49.8478 25.9
      vertex -31.3902 -49.9616 25.9
    endloop
  endfacet
  facet normal 0.247062 0.814449 -0.525008
    outer loop
      vertex -31.7654 -49.8478 25.9
      vertex -48.3902 -49.9616 17.9
      vertex -48.7654 -49.8478 17.9
    endloop
  endfacet
  facet normal 0.377954 0.460539 -0.803153
    outer loop
      vertex -49.1111 -49.6629 17.9
      vertex -32.4142 -49.4142 25.9
      vertex -32.1111 -49.6629 25.9
    endloop
  endfacet
  facet normal 0.377954 0.460539 -0.803153
    outer loop
      vertex -32.4142 -49.4142 25.9
      vertex -49.1111 -49.6629 17.9
      vertex -49.4142 -49.4142 17.9
    endloop
  endfacet
  facet normal 0.33304 0.623082 -0.707709
    outer loop
      vertex -48.7654 -49.8478 17.9
      vertex -32.1111 -49.6629 25.9
      vertex -31.7654 -49.8478 25.9
    endloop
  endfacet
  facet normal 0.33304 0.623082 -0.707709
    outer loop
      vertex -32.1111 -49.6629 25.9
      vertex -48.7654 -49.8478 17.9
      vertex -49.1111 -49.6629 17.9
    endloop
  endfacet
  facet normal 0.385078 0.247659 -0.889033
    outer loop
      vertex -57.6629 14.8889 32.9
      vertex -32.6629 -49.1111 25.9
      vertex -57.6629 0.888859 29
    endloop
  endfacet
  facet normal 0.609711 -0.304855 -0.731653
    outer loop
      vertex -57.8478 52.7654 17.9
      vertex -44.8478 42.7654 32.9
      vertex -57.8478 16.7654 32.9
    endloop
  endfacet
  facet normal 0.95694 -0.290287 0
    outer loop
      vertex -57.9616 52.3902 17.9
      vertex -57.8478 52.7654 0
      vertex -57.8478 52.7654 17.9
    endloop
  endfacet
  facet normal 0.95694 -0.290287 0
    outer loop
      vertex -57.8478 52.7654 0
      vertex -57.9616 52.3902 17.9
      vertex -57.9616 52.3902 0
    endloop
  endfacet
  facet normal -0.377954 0.460539 -0.803153
    outer loop
      vertex 49.1111 -49.6629 17.9
      vertex 32.4142 -49.4142 25.9
      vertex 49.4142 -49.4142 17.9
    endloop
  endfacet
  facet normal -0.377954 0.460539 -0.803153
    outer loop
      vertex 32.4142 -49.4142 25.9
      vertex 49.1111 -49.6629 17.9
      vertex 32.1111 -49.6629 25.9
    endloop
  endfacet
  facet normal -0.0373264 0.123048 -0.991699
    outer loop
      vertex 31.7654 -49.8478 25.9
      vertex 56.3902 14.0384 32.9
      vertex 56.7654 14.1522 32.9
    endloop
  endfacet
  facet normal -0.0373262 0.123048 -0.991699
    outer loop
      vertex 56.3902 14.0384 32.9
      vertex 31.7654 -49.8478 25.9
      vertex 31.3902 -49.9616 25.9
    endloop
  endfacet
  facet normal -0.785175 -0.238182 -0.571637
    outer loop
      vertex 57.9616 52.3902 17.9
      vertex 57.8478 16.7654 32.9
      vertex 57.8478 52.7654 17.9
    endloop
  endfacet
  facet normal -0.785177 -0.238181 -0.571636
    outer loop
      vertex 57.8478 16.7654 32.9
      vertex 57.9616 52.3902 17.9
      vertex 57.9616 16.3902 32.9
    endloop
  endfacet
  facet normal -0.448685 0.239825 -0.86091
    outer loop
      vertex 57.6629 14.8889 32.9
      vertex 57.8478 1.23463 29
      vertex 57.6629 0.888859 29
    endloop
  endfacet
  facet normal -0.448685 0.239825 -0.86091
    outer loop
      vertex 57.8478 1.23463 29
      vertex 57.6629 14.8889 32.9
      vertex 57.8478 15.2346 32.9
    endloop
  endfacet
  facet normal -0.93877 0.0924601 -0.331908
    outer loop
      vertex 58 2 29
      vertex 57.9616 15.6098 32.9
      vertex 58 16 32.9
    endloop
  endfacet
  facet normal -0.93877 0.0924601 -0.331908
    outer loop
      vertex 57.9616 15.6098 32.9
      vertex 58 2 29
      vertex 57.9616 1.60982 29
    endloop
  endfacet
  facet normal -0.471391 0.881924 0
    outer loop
      vertex 49.1111 -49.6629 0
      vertex 48.7654 -49.8478 17.9
      vertex 49.1111 -49.6629 17.9
    endloop
  endfacet
  facet normal -0.471391 0.881924 0
    outer loop
      vertex 48.7654 -49.8478 17.9
      vertex 49.1111 -49.6629 0
      vertex 48.7654 -49.8478 0
    endloop
  endfacet
  facet normal -0.011131 0.113016 -0.993531
    outer loop
      vertex 56.3902 14.0384 32.9
      vertex 31.3902 -49.9616 25.9
      vertex 31 -50 25.9
    endloop
  endfacet
  facet normal -0.773011 -0.634393 0
    outer loop
      vertex 57.6629 53.1111 0
      vertex 57.4142 53.4142 17.9
      vertex 57.4142 53.4142 0
    endloop
  endfacet
  facet normal -0.773011 -0.634393 0
    outer loop
      vertex 57.4142 53.4142 17.9
      vertex 57.6629 53.1111 0
      vertex 57.6629 53.1111 17.9
    endloop
  endfacet
  facet normal -0.223838 -0.737888 -0.636725
    outer loop
      vertex 56.3902 53.9616 17.9
      vertex 43.7654 44.8478 32.9
      vertex 43.3902 44.9616 32.9
    endloop
  endfacet
  facet normal -0.223838 -0.737888 -0.636725
    outer loop
      vertex 43.7654 44.8478 32.9
      vertex 56.3902 53.9616 17.9
      vertex 56.7654 53.8478 17.9
    endloop
  endfacet
  facet normal -0.0809746 -0.822157 -0.563472
    outer loop
      vertex 56 54 17.9
      vertex 43.3902 44.9616 32.9
      vertex 43 45 32.9
    endloop
  endfacet
  facet normal -0.0809746 -0.822157 -0.563472
    outer loop
      vertex 43.3902 44.9616 32.9
      vertex 56 54 17.9
      vertex 56.3902 53.9616 17.9
    endloop
  endfacet
  facet normal 0.471391 -0.881924 0
    outer loop
      vertex -57.1111 53.6629 0
      vertex -56.7654 53.8478 17.9
      vertex -57.1111 53.6629 17.9
    endloop
  endfacet
  facet normal 0.471391 -0.881924 0
    outer loop
      vertex -56.7654 53.8478 17.9
      vertex -57.1111 53.6629 0
      vertex -56.7654 53.8478 0
    endloop
  endfacet
  facet normal 0.216893 -0.714994 -0.664636
    outer loop
      vertex -56.3902 53.9616 17.9
      vertex -43.7654 43.8478 32.9
      vertex -56.7654 53.8478 17.9
    endloop
  endfacet
  facet normal 0.216893 -0.714994 -0.664636
    outer loop
      vertex -43.7654 43.8478 32.9
      vertex -56.3902 53.9616 17.9
      vertex -43.3902 43.9616 32.9
    endloop
  endfacet
  facet normal 0.521832 -0.428256 -0.737759
    outer loop
      vertex -44.6629 43.1111 32.9
      vertex -57.4142 53.4142 17.9
      vertex -44.4142 43.4142 32.9
    endloop
  endfacet
  facet normal 0.521832 -0.428256 -0.737759
    outer loop
      vertex -57.4142 53.4142 17.9
      vertex -44.6629 43.1111 32.9
      vertex -57.6629 53.1111 17.9
    endloop
  endfacet
  facet normal 0.0784731 -0.796758 -0.599182
    outer loop
      vertex -56 54 17.9
      vertex -43.3902 43.9616 32.9
      vertex -56.3902 53.9616 17.9
    endloop
  endfacet
  facet normal 0.0784731 -0.796758 -0.599182
    outer loop
      vertex -43.3902 43.9616 32.9
      vertex -56 54 17.9
      vertex -43 44 32.9
    endloop
  endfacet
  facet normal 0.0980162 -0.995185 0
    outer loop
      vertex -56.3902 53.9616 0
      vertex -56 54 17.9
      vertex -56.3902 53.9616 17.9
    endloop
  endfacet
  facet normal 0.0980162 -0.995185 0
    outer loop
      vertex -56 54 17.9
      vertex -56.3902 53.9616 0
      vertex -56 54 0
    endloop
  endfacet
  facet normal 0.290287 0.95694 -0
    outer loop
      vertex -48.3902 -49.9616 0
      vertex -48.7654 -49.8478 17.9
      vertex -48.3902 -49.9616 17.9
    endloop
  endfacet
  facet normal 0.290287 0.95694 0
    outer loop
      vertex -48.7654 -49.8478 17.9
      vertex -48.3902 -49.9616 0
      vertex -48.7654 -49.8478 0
    endloop
  endfacet
  facet normal 0.471391 0.881924 -0
    outer loop
      vertex -48.7654 -49.8478 0
      vertex -49.1111 -49.6629 17.9
      vertex -48.7654 -49.8478 17.9
    endloop
  endfacet
  facet normal 0.471391 0.881924 0
    outer loop
      vertex -49.1111 -49.6629 17.9
      vertex -48.7654 -49.8478 0
      vertex -49.1111 -49.6629 0
    endloop
  endfacet
  facet normal 0.24159 0.198267 -0.949908
    outer loop
      vertex -32.6629 -49.1111 25.9
      vertex -57.4142 14.5858 32.9
      vertex -32.4142 -49.4142 25.9
    endloop
  endfacet
  facet normal 0.241588 0.198267 -0.949908
    outer loop
      vertex -57.4142 14.5858 32.9
      vertex -32.6629 -49.1111 25.9
      vertex -57.6629 14.8889 32.9
    endloop
  endfacet
  facet normal 0.785175 -0.238182 -0.571637
    outer loop
      vertex -57.8478 16.7654 32.9
      vertex -57.9616 52.3902 17.9
      vertex -57.8478 52.7654 17.9
    endloop
  endfacet
  facet normal 0.785177 -0.238181 -0.571636
    outer loop
      vertex -57.9616 52.3902 17.9
      vertex -57.8478 16.7654 32.9
      vertex -57.9616 16.3902 32.9
    endloop
  endfacet
  facet normal 0.968742 -0.0954119 -0.228988
    outer loop
      vertex -57.9616 16.3902 32.9
      vertex -58 52 17.9
      vertex -57.9616 52.3902 17.9
    endloop
  endfacet
  facet normal 0.968742 -0.0954123 -0.228989
    outer loop
      vertex -58 52 17.9
      vertex -57.9616 16.3902 32.9
      vertex -58 16 32.9
    endloop
  endfacet
  facet normal -0.995185 -0.0980162 0
    outer loop
      vertex 58 52 0
      vertex 57.9616 52.3902 17.9
      vertex 57.9616 52.3902 0
    endloop
  endfacet
  facet normal -0.995185 -0.0980162 0
    outer loop
      vertex 57.9616 52.3902 17.9
      vertex 58 52 0
      vertex 58 52 17.9
    endloop
  endfacet
  facet normal -0.247062 0.814449 -0.525008
    outer loop
      vertex 48.3902 -49.9616 17.9
      vertex 31.7654 -49.8478 25.9
      vertex 48.7654 -49.8478 17.9
    endloop
  endfacet
  facet normal -0.247062 0.81445 -0.525006
    outer loop
      vertex 31.7654 -49.8478 25.9
      vertex 48.3902 -49.9616 17.9
      vertex 31.3902 -49.9616 25.9
    endloop
  endfacet
  facet normal -0.33304 0.623082 -0.707709
    outer loop
      vertex 48.7654 -49.8478 17.9
      vertex 32.1111 -49.6629 25.9
      vertex 49.1111 -49.6629 17.9
    endloop
  endfacet
  facet normal -0.33304 0.623082 -0.707709
    outer loop
      vertex 32.1111 -49.6629 25.9
      vertex 48.7654 -49.8478 17.9
      vertex 31.7654 -49.8478 25.9
    endloop
  endfacet
  facet normal -0.881924 0.471391 0
    outer loop
      vertex 49.6629 -49.1111 0
      vertex 49.8478 -48.7654 17.9
      vertex 49.8478 -48.7654 0
    endloop
  endfacet
  facet normal -0.881924 0.471391 0
    outer loop
      vertex 49.8478 -48.7654 17.9
      vertex 49.6629 -49.1111 0
      vertex 49.6629 -49.1111 17.9
    endloop
  endfacet
  facet normal -0.609084 -0.325558 -0.723207
    outer loop
      vertex 44.6629 44.1111 32.9
      vertex 57.8478 52.7654 17.9
      vertex 44.8478 43.7654 32.9
    endloop
  endfacet
  facet normal -0.609084 -0.325558 -0.723207
    outer loop
      vertex 57.8478 52.7654 17.9
      vertex 44.6629 44.1111 32.9
      vertex 57.6629 53.1111 17.9
    endloop
  endfacet
  facet normal 0.434216 -0.529095 -0.729051
    outer loop
      vertex -44.4142 43.4142 32.9
      vertex -57.1111 53.6629 17.9
      vertex -44.1111 43.6629 32.9
    endloop
  endfacet
  facet normal 0.434216 -0.529095 -0.729051
    outer loop
      vertex -57.1111 53.6629 17.9
      vertex -44.4142 43.4142 32.9
      vertex -57.4142 53.4142 17.9
    endloop
  endfacet
  facet normal 0.634393 -0.773011 0
    outer loop
      vertex -57.4142 53.4142 0
      vertex -57.1111 53.6629 17.9
      vertex -57.4142 53.4142 17.9
    endloop
  endfacet
  facet normal 0.634393 -0.773011 0
    outer loop
      vertex -57.1111 53.6629 17.9
      vertex -57.4142 53.4142 0
      vertex -57.1111 53.6629 0
    endloop
  endfacet
  facet normal 0.0729973 0.13657 -0.987937
    outer loop
      vertex -32.1111 -49.6629 25.9
      vertex -56.7654 14.1522 32.9
      vertex -31.7654 -49.8478 25.9
    endloop
  endfacet
  facet normal 0.0729977 0.13657 -0.987937
    outer loop
      vertex -56.7654 14.1522 32.9
      vertex -32.1111 -49.6629 25.9
      vertex -57.1111 14.3371 32.9
    endloop
  endfacet
  facet normal 0.448685 0.239825 -0.86091
    outer loop
      vertex -57.8478 1.23463 29
      vertex -57.6629 14.8889 32.9
      vertex -57.6629 0.888859 29
    endloop
  endfacet
  facet normal 0.448685 0.239825 -0.86091
    outer loop
      vertex -57.6629 14.8889 32.9
      vertex -57.8478 1.23463 29
      vertex -57.8478 15.2346 32.9
    endloop
  endfacet
  facet normal -0.624131 -0.300508 -0.721218
    outer loop
      vertex 57.8478 52.7654 17.9
      vertex 57.8478 16.7654 32.9
      vertex 44.8478 43.7654 32.9
    endloop
  endfacet
  facet normal -0.290287 0.95694 0
    outer loop
      vertex 48.7654 -49.8478 0
      vertex 48.3902 -49.9616 17.9
      vertex 48.7654 -49.8478 17.9
    endloop
  endfacet
  facet normal -0.290287 0.95694 0
    outer loop
      vertex 48.3902 -49.9616 17.9
      vertex 48.7654 -49.8478 0
      vertex 48.3902 -49.9616 0
    endloop
  endfacet
  facet normal -0.0980162 0.995185 0
    outer loop
      vertex 48.3902 -49.9616 0
      vertex 48 -50 17.9
      vertex 48.3902 -49.9616 17.9
    endloop
  endfacet
  facet normal -0.0980162 0.995185 0
    outer loop
      vertex 48 -50 17.9
      vertex 48.3902 -49.9616 0
      vertex 48 -50 0
    endloop
  endfacet
  facet normal -0.634393 0.773011 0
    outer loop
      vertex 49.4142 -49.4142 0
      vertex 49.1111 -49.6629 17.9
      vertex 49.4142 -49.4142 17.9
    endloop
  endfacet
  facet normal -0.634393 0.773011 0
    outer loop
      vertex 49.1111 -49.6629 17.9
      vertex 49.4142 -49.4142 0
      vertex 49.1111 -49.6629 0
    endloop
  endfacet
  facet normal 0.0373262 0.123048 -0.991699
    outer loop
      vertex -31.7654 -49.8478 25.9
      vertex -56.3902 14.0384 32.9
      vertex -31.3902 -49.9616 25.9
    endloop
  endfacet
  facet normal 0.0373264 0.123048 -0.991699
    outer loop
      vertex -56.3902 14.0384 32.9
      vertex -31.7654 -49.8478 25.9
      vertex -56.7654 14.1522 32.9
    endloop
  endfacet
endsolid OpenSCAD_Model
