solid OpenSCAD_Model
  facet normal 1 -0 0
    outer loop
      vertex 30.13 -21.36 2.45
      vertex 30.13 21.36 0
      vertex 30.13 21.36 2.45
    endloop
  endfacet
  facet normal 1 0 0
    outer loop
      vertex 30.13 21.36 0
      vertex 30.13 -21.36 2.45
      vertex 30.13 -21.36 0
    endloop
  endfacet
  facet normal 0 0 1
    outer loop
      vertex 30.13 21.36 2.45
      vertex 27.48 18.36 2.45
      vertex 30.13 -21.36 2.45
    endloop
  endfacet
  facet normal 0 0 1
    outer loop
      vertex 30.13 21.36 2.45
      vertex -21.48 18.36 2.45
      vertex 27.48 18.36 2.45
    endloop
  endfacet
  facet normal 0 0 1
    outer loop
      vertex -21.48 18.36 2.45
      vertex -30.13 21.36 2.45
      vertex -21.48 -18.36 2.45
    endloop
  endfacet
  facet normal -0 0 1
    outer loop
      vertex -30.13 21.36 2.45
      vertex -21.48 18.36 2.45
      vertex 30.13 21.36 2.45
    endloop
  endfacet
  facet normal -0 0 1
    outer loop
      vertex 27.48 -18.36 2.45
      vertex 30.13 -21.36 2.45
      vertex 27.48 18.36 2.45
    endloop
  endfacet
  facet normal -0 0 1
    outer loop
      vertex -21.48 -18.36 2.45
      vertex 30.13 -21.36 2.45
      vertex 27.48 -18.36 2.45
    endloop
  endfacet
  facet normal 0 0 1
    outer loop
      vertex -21.48 -18.36 2.45
      vertex -30.13 -21.36 2.45
      vertex 30.13 -21.36 2.45
    endloop
  endfacet
  facet normal 0 0 1
    outer loop
      vertex -30.13 -21.36 2.45
      vertex -21.48 -18.36 2.45
      vertex -30.13 21.36 2.45
    endloop
  endfacet
  facet normal 0 0 -1
    outer loop
      vertex -30.13 -21.36 0
      vertex 30.13 21.36 0
      vertex 30.13 -21.36 0
    endloop
  endfacet
  facet normal -0 0 -1
    outer loop
      vertex 30.13 21.36 0
      vertex -30.13 -21.36 0
      vertex -30.13 21.36 0
    endloop
  endfacet
  facet normal -1 0 0
    outer loop
      vertex -30.13 -21.36 0
      vertex -30.13 21.36 2.45
      vertex -30.13 21.36 0
    endloop
  endfacet
  facet normal -1 -0 0
    outer loop
      vertex -30.13 21.36 2.45
      vertex -30.13 -21.36 0
      vertex -30.13 -21.36 2.45
    endloop
  endfacet
  facet normal 0 1 -0
    outer loop
      vertex 30.13 21.36 0
      vertex -30.13 21.36 2.45
      vertex 30.13 21.36 2.45
    endloop
  endfacet
  facet normal 0 1 0
    outer loop
      vertex -30.13 21.36 2.45
      vertex 30.13 21.36 0
      vertex -30.13 21.36 0
    endloop
  endfacet
  facet normal 0 -1 0
    outer loop
      vertex -30.13 -21.36 0
      vertex 30.13 -21.36 2.45
      vertex -30.13 -21.36 2.45
    endloop
  endfacet
  facet normal 0 -1 -0
    outer loop
      vertex 30.13 -21.36 2.45
      vertex -30.13 -21.36 0
      vertex 30.13 -21.36 0
    endloop
  endfacet
  facet normal 1 -0 0
    outer loop
      vertex 27.48 -18.36 2.8
      vertex 27.48 18.36 2.45
      vertex 27.48 18.36 2.8
    endloop
  endfacet
  facet normal 1 0 0
    outer loop
      vertex 27.48 18.36 2.45
      vertex 27.48 -18.36 2.8
      vertex 27.48 -18.36 2.45
    endloop
  endfacet
  facet normal -0 0 1
    outer loop
      vertex -21.48 18.36 2.8
      vertex 27.48 -18.36 2.8
      vertex 27.48 18.36 2.8
    endloop
  endfacet
  facet normal 0 0 1
    outer loop
      vertex 27.48 -18.36 2.8
      vertex -21.48 18.36 2.8
      vertex -21.48 -18.36 2.8
    endloop
  endfacet
  facet normal -1 0 0
    outer loop
      vertex -21.48 -18.36 2.45
      vertex -21.48 18.36 2.8
      vertex -21.48 18.36 2.45
    endloop
  endfacet
  facet normal -1 -0 0
    outer loop
      vertex -21.48 18.36 2.8
      vertex -21.48 -18.36 2.45
      vertex -21.48 -18.36 2.8
    endloop
  endfacet
  facet normal 0 1 -0
    outer loop
      vertex 27.48 18.36 2.45
      vertex -21.48 18.36 2.8
      vertex 27.48 18.36 2.8
    endloop
  endfacet
  facet normal 0 1 0
    outer loop
      vertex -21.48 18.36 2.8
      vertex 27.48 18.36 2.45
      vertex -21.48 18.36 2.45
    endloop
  endfacet
  facet normal 0 -1 0
    outer loop
      vertex -21.48 -18.36 2.45
      vertex 27.48 -18.36 2.8
      vertex -21.48 -18.36 2.8
    endloop
  endfacet
  facet normal 0 -1 -0
    outer loop
      vertex 27.48 -18.36 2.8
      vertex -21.48 -18.36 2.45
      vertex 27.48 -18.36 2.45
    endloop
  endfacet
endsolid OpenSCAD_Model
